<?xml version="1.0" encoding="UTF-8" standalone="no"?>
<svg
   xmlns:dc="http://purl.org/dc/elements/1.1/"
   xmlns:cc="http://creativecommons.org/ns#"
   xmlns:rdf="http://www.w3.org/1999/02/22-rdf-syntax-ns#"
   xmlns:svg="http://www.w3.org/2000/svg"
   xmlns="http://www.w3.org/2000/svg"
   xmlns:sodipodi="http://sodipodi.sourceforge.net/DTD/sodipodi-0.dtd"
   xmlns:inkscape="http://www.inkscape.org/namespaces/inkscape"
   sodipodi:docname="logo.svg"
   inkscape:version="1.0 (4035a4fb49, 2020-05-01)"
   id="svg8"
   version="1.1"
   viewBox="0 0 83.297279 40.164074"
   height="40.164074mm"
   width="83.297279mm">
  <defs
     id="defs2" />
  <sodipodi:namedview
     fit-margin-bottom="0"
     fit-margin-right="0"
     fit-margin-left="0"
     fit-margin-top="0"
     inkscape:window-maximized="1"
     inkscape:window-y="-8"
     inkscape:window-x="1912"
     inkscape:window-height="1017"
     inkscape:window-width="2560"
     showgrid="false"
     inkscape:document-rotation="0"
     inkscape:current-layer="layer1"
     inkscape:document-units="mm"
     inkscape:cy="-38.845369"
     inkscape:cx="141.47789"
     inkscape:zoom="0.9899495"
     inkscape:pageshadow="2"
     inkscape:pageopacity="0.0"
     borderopacity="1.0"
     bordercolor="#666666"
     pagecolor="#ffffff"
     id="base" />
  <metadata
     id="metadata5">
    <rdf:RDF>
      <cc:Work
         rdf:about="">
        <dc:format>image/svg+xml</dc:format>
        <dc:type
           rdf:resource="http://purl.org/dc/dcmitype/StillImage" />
        <dc:title></dc:title>
      </cc:Work>
    </rdf:RDF>
  </metadata>
  <g
     transform="translate(-5.2552425,-95.538036)"
     id="layer1"
     inkscape:groupmode="layer"
     inkscape:label="Calque 1">
    <path
       id="path1019"
       style="color:#000000;font-style:normal;font-variant:normal;font-weight:normal;font-stretch:normal;font-size:medium;line-height:normal;font-family:sans-serif;font-variant-ligatures:normal;font-variant-position:normal;font-variant-caps:normal;font-variant-numeric:normal;font-variant-alternates:normal;font-variant-east-asian:normal;font-feature-settings:normal;font-variation-settings:normal;text-indent:0;text-align:start;text-decoration:none;text-decoration-line:none;text-decoration-style:solid;text-decoration-color:#000000;letter-spacing:normal;word-spacing:normal;text-transform:none;writing-mode:lr-tb;direction:ltr;text-orientation:mixed;dominant-baseline:auto;baseline-shift:baseline;text-anchor:start;white-space:normal;shape-padding:0;shape-margin:0;inline-size:0;clip-rule:nonzero;display:inline;overflow:visible;visibility:visible;opacity:1;isolation:auto;mix-blend-mode:normal;color-interpolation:sRGB;color-interpolation-filters:linearRGB;solid-color:#000000;solid-opacity:1;vector-effect:none;fill:#ff9031;fill-opacity:1;fill-rule:evenodd;stroke:#523b00;stroke-width:0.679;stroke-linecap:square;stroke-linejoin:miter;stroke-miterlimit:0;stroke-dasharray:none;stroke-dashoffset:0;stroke-opacity:1;paint-order:normal;color-rendering:auto;image-rendering:auto;shape-rendering:auto;text-rendering:auto;enable-background:accumulate;stop-color:#000000;stop-opacity:1"
       d="m 85.267578,100.73633 c -1.108553,0.30326 -2.14112,0.88149 -3.208984,1.3125 -0.981885,0.51801 -0.549601,2.18741 0.566406,2.14453 0.43497,0.0402 1.132866,-0.58535 0.713071,0.21066 -1.168518,3.62869 -2.418333,7.23334 -4.304868,10.57645 -1.325097,2.21998 -3.10796,4.78413 -5.866169,5.3429 -3.242315,0.43182 -6.98379,-0.81307 -8.618206,-3.80579 -1.469505,-2.64498 -0.674312,-6.50556 2.103115,-7.94511 1.886098,-1.05212 4.731322,-0.15842 5.252354,2.05058 0.15144,0.86405 0.02405,1.97124 -0.703125,2.53711 -0.461605,-0.12809 -1.539763,0.34216 -1.523438,-0.27852 -0.118913,-0.8906 0.346821,-2.08584 -0.511718,-2.71367 -0.791434,-0.58121 -1.945224,0.22316 -1.767578,1.16289 v 1.87617 c -0.9148,0.0926 -1.905056,-0.15076 -2.771485,0.19727 -0.975801,0.51473 -0.554701,2.17184 0.552735,2.14258 0.739274,-0.0153 1.479175,-0.026 2.21875,-0.0352 0.109259,0.89704 -0.2481,1.91707 0.240234,2.72851 0.593216,0.87743 2.10278,0.34006 2.039062,-0.70703 v -2.04492 c 1.165297,3.3e-4 2.545083,0.14145 3.367188,-0.88281 1.853005,-2.0995 1.505647,-5.65545 -0.69336,-7.38477 -2.217428,-1.91121 -5.742027,-1.8044 -7.943171,0.0763 -3.178634,2.56562 -3.756123,7.57148 -1.496934,10.91779 2.299748,3.54845 6.953026,5.06247 11.006382,4.30608 3.224803,-0.74885 5.425134,-3.5428 7.017014,-6.26452 2.099164,-3.67383 3.478704,-7.69928 4.7546,-11.71724 0.04312,-0.16899 0.929506,1.46856 1.769531,1.14844 0.873996,-0.2818 0.978233,-1.46241 0.362628,-2.05839 -0.646798,-0.87874 -1.143398,-1.88249 -1.862628,-2.70528 -0.331169,-0.30492 -0.100468,-0.42526 -0.691406,-0.1875 z"
       sodipodi:nodetypes="sccccccccccccccccccccccccccccccs"
       inkscape:export-xdpi="304.92999"
       inkscape:export-ydpi="304.92999" />
    <path
       id="path889"
       style="color:#000000;font-style:normal;font-variant:normal;font-weight:normal;font-stretch:normal;font-size:medium;line-height:normal;font-family:sans-serif;font-variant-ligatures:normal;font-variant-position:normal;font-variant-caps:normal;font-variant-numeric:normal;font-variant-alternates:normal;font-variant-east-asian:normal;font-feature-settings:normal;font-variation-settings:normal;text-indent:0;text-align:start;text-decoration:none;text-decoration-line:none;text-decoration-style:solid;text-decoration-color:#000000;letter-spacing:normal;word-spacing:normal;text-transform:none;writing-mode:lr-tb;direction:ltr;text-orientation:mixed;dominant-baseline:auto;baseline-shift:baseline;text-anchor:start;white-space:normal;shape-padding:0;shape-margin:0;inline-size:0;clip-rule:nonzero;display:inline;overflow:visible;visibility:visible;opacity:1;isolation:auto;mix-blend-mode:normal;color-interpolation:sRGB;color-interpolation-filters:linearRGB;solid-color:#000000;solid-opacity:1;vector-effect:none;fill:none;fill-opacity:1;fill-rule:evenodd;stroke:#523b00;stroke-width:0.279;stroke-linecap:round;stroke-linejoin:miter;stroke-miterlimit:0;stroke-dasharray:0.837, 0.837;stroke-dashoffset:0;stroke-opacity:1;paint-order:stroke fill markers;color-rendering:auto;image-rendering:auto;shape-rendering:auto;text-rendering:auto;enable-background:accumulate;stop-color:#000000;stop-opacity:1"
       sodipodi:type="inkscape:offset"
       inkscape:radius="0.25443175"
       inkscape:original="M 85.332031 101.79297 L 85.326172 101.79492 C 84.416241 102.19609 83.441425 102.55166 82.566406 103.00195 C 82.560206 103.35183 83.07268 102.89133 83.220703 102.89258 C 83.790481 102.55304 84.334254 102.36625 84.732422 103.03906 C 84.931571 103.52664 84.415291 104.20513 84.333984 104.76758 C 82.854839 109.25543 81.325681 113.85056 78.505859 117.70117 C 77.016114 119.73062 74.780434 121.55096 72.130859 121.46484 C 68.615026 121.55474 64.782758 119.83559 63.353516 116.45898 C 61.929977 113.31972 63.125394 109.04754 66.34375 107.54492 C 68.699595 106.3628 72.039475 107.46861 72.845703 110.07422 C 73.249751 111.4182 72.976147 113.14082 71.822266 114.03516 C 70.998285 114.42025 70.035658 114.15054 69.154297 114.24609 C 68.518025 113.89414 68.590569 113.24668 68.619141 112.61719 C 68.554571 112.1153 68.726635 111.51058 68.574219 111.04492 C 68.293616 111.02672 68.539199 111.59589 68.457031 111.75391 C 68.409431 112.4264 68.551849 113.17658 68.386719 113.80078 C 68.041257 114.44265 67.337242 114.23837 66.734375 114.27344 C 66.218491 114.32374 65.627774 114.2081 65.142578 114.3418 C 65.080348 114.67439 65.673311 114.39127 65.835938 114.47461 C 66.547241 114.50541 67.329451 114.36374 67.992188 114.51758 C 68.638874 114.86519 68.431646 115.56881 68.457031 116.17578 C 68.517131 116.63248 68.357327 117.19499 68.498047 117.61523 C 68.790441 117.63463 68.532207 117.06939 68.619141 116.91016 C 68.668661 116.24887 68.521673 115.50722 68.689453 114.89453 C 69.034915 114.25269 69.73893 114.45699 70.341797 114.42188 C 71.156263 114.50647 72.089406 114.37385 72.515625 113.57227 C 73.792698 111.68836 73.187433 108.87039 71.222656 107.70117 C 69.019291 106.19028 65.83486 106.89132 64.230469 108.94922 C 62.225813 111.36329 62.072567 114.94715 63.759766 117.58008 C 65.827767 120.8073 70.049003 122.15706 73.714844 121.48438 C 76.634559 120.7638 78.574272 118.17655 80.025391 115.71289 C 82.272275 111.78432 83.656842 107.44728 85.021484 103.1543 C 85.706261 102.91632 86.211338 103.07099 86.458984 103.7832 C 86.711139 104.01108 86.79812 104.56745 87.105469 104.6875 C 87.335067 104.47391 86.789851 104.16075 86.761719 103.93555 C 86.27053 103.24389 85.86156 102.42861 85.332031 101.79297 z "
       d="m 85.34375,101.53906 a 0.2544572,0.2544572 0 0 0 -0.0918,0.0117 l -0.0059,0.002 a 0.2544572,0.2544572 0 0 0 -0.02344,0.01 c -0.899333,0.3965 -1.878512,0.75236 -2.773437,1.21289 a 0.2544572,0.2544572 0 0 0 -0.136719,0.22266 c -0.0013,0.0743 0.0062,0.15543 0.06055,0.23828 0.05435,0.0829 0.162052,0.13864 0.242187,0.14844 0.160271,0.0196 0.244696,-0.0355 0.332032,-0.0781 0.08733,-0.0427 0.168515,-0.0912 0.230468,-0.125 0.06195,-0.0338 0.137159,-0.0343 0.04102,-0.0352 a 0.2544572,0.2544572 0 0 0 0.132812,-0.0352 c 0.271939,-0.16205 0.521591,-0.26808 0.695313,-0.27149 0.166668,-0.003 0.289251,0.0524 0.447266,0.30664 0.05042,0.13522 0.01311,0.35748 -0.09375,0.63868 -0.108828,0.28637 -0.268869,0.60295 -0.31836,0.94531 l 0.0098,-0.043 c -1.478989,4.48738 -3.002296,9.05514 -5.791016,12.86328 -1.460837,1.99007 -3.633529,3.74234 -6.162109,3.66016 a 0.2544572,0.2544572 0 0 0 -0.01367,0 c -3.428251,0.0877 -7.159422,-1.59675 -8.537109,-4.85156 a 0.2544572,0.2544572 0 0 0 -0.002,-0.006 c -1.365558,-3.0114 -0.207499,-7.1435 2.865234,-8.57813 a 0.2544572,0.2544572 0 0 0 0.0059,-0.004 c 2.212073,-1.10997 5.389527,-0.0567 6.144531,2.37696 0.374997,1.24734 0.107969,2.84907 -0.917968,3.66406 -0.680216,0.30065 -1.545811,0.10785 -2.44336,0.17969 -0.218597,-0.13523 -0.30917,-0.28961 -0.353515,-0.50781 -0.04755,-0.23397 -0.02822,-0.53493 -0.01367,-0.85547 a 0.2544572,0.2544572 0 0 0 -0.002,-0.0449 c -0.05397,-0.41949 0.135596,-1.03778 -0.05469,-1.61914 a 0.2544572,0.2544572 0 0 0 -0.226562,-0.17382 c -0.07662,-0.005 -0.169378,0.0124 -0.244141,0.0644 -0.07476,0.052 -0.117791,0.12668 -0.138672,0.18945 -0.04176,0.12554 -0.02874,0.22276 -0.01953,0.31446 0.0092,0.0917 0.02351,0.17674 0.0293,0.23828 0.0058,0.0615 -0.01856,0.10105 0.01367,0.0391 a 0.2544572,0.2544572 0 0 0 -0.02734,0.0996 c -0.0501,0.70787 0.06978,1.42729 -0.06055,1.96484 -0.12908,0.22105 -0.274913,0.28336 -0.513672,0.31055 -0.249631,0.0284 -0.574398,-0.0117 -0.910156,0.008 a 0.2544572,0.2544572 0 0 0 -0.0098,0 c -0.459727,0.0448 -1.062356,-0.0816 -1.634765,0.0762 a 0.2544572,0.2544572 0 0 0 -0.181641,0.19922 c -0.0139,0.0743 -0.01605,0.16003 0.02148,0.2461 0.03754,0.0861 0.116416,0.15345 0.185547,0.18359 0.138264,0.0603 0.239184,0.0404 0.333985,0.0293 0.0948,-0.0111 0.184086,-0.0272 0.248047,-0.0352 0.06396,-0.008 0.106288,0.0169 0.03906,-0.0176 a 0.2544572,0.2544572 0 0 0 0.103516,0.0273 c 0.73752,0.0319 1.488778,-0.0875 2.070312,0.0352 0.221255,0.12987 0.284631,0.27607 0.310547,0.51367 0.0272,0.2494 -0.01602,0.57174 -0.002,0.90821 a 0.2544572,0.2544572 0 0 0 0.002,0.0234 c 0.02448,0.18604 0.0035,0.42869 -0.01172,0.68555 -0.01524,0.25686 -0.02792,0.53075 0.0625,0.80078 a 0.2544572,0.2544572 0 0 0 0.22461,0.17383 c 0.07603,0.005 0.168214,-0.0105 0.24414,-0.0606 0.07593,-0.0501 0.122381,-0.12548 0.144532,-0.18945 0.0443,-0.12793 0.02942,-0.2248 0.01953,-0.31641 -0.0099,-0.0916 -0.02529,-0.17789 -0.03125,-0.23828 -0.006,-0.0604 0.01837,-0.0955 -0.01563,-0.0332 a 0.2544572,0.2544572 0 0 0 0.03125,-0.10156 c 0.05241,-0.69987 -0.07101,-1.41219 0.06055,-1.93555 0.129077,-0.22103 0.274908,-0.28336 0.513672,-0.31055 0.238387,-0.0271 0.549695,0.006 0.86914,-0.008 0.430753,0.0447 0.897867,0.0344 1.333985,-0.10351 0.434484,-0.13736 0.839153,-0.41646 1.085937,-0.87696 9.93e-4,-0.001 0.0029,-0.002 0.0039,-0.004 1.340811,-2.00723 0.706794,-4.94953 -1.373046,-6.19922 l -0.002,-0.002 c -2.325472,-1.59271 -5.641486,-0.8619 -7.330078,1.29688 -2.079651,2.50438 -2.237797,6.20256 -0.490234,8.92969 2.135472,3.33251 6.457424,4.70742 10.216797,4.01758 a 0.2544572,0.2544572 0 0 0 0.01367,-0.004 c 3.031814,-0.74825 5.006844,-3.4067 6.46875,-5.88867 a 0.2544572,0.2544572 0 0 0 0.002,-0.002 c 2.239854,-3.91628 3.620287,-8.22116 4.970703,-12.46875 0.247915,-0.0689 0.449926,-0.0807 0.591797,-0.0234 0.164364,0.0663 0.302079,0.20871 0.410156,0.51953 a 0.2544572,0.2544572 0 0 0 0.07031,0.10547 c 0.06045,0.0546 0.147907,0.22632 0.244141,0.41796 0.09623,0.19165 0.210296,0.42768 0.480469,0.53321 a 0.2544572,0.2544572 0 0 0 0.265625,-0.0508 c 0.116869,-0.10872 0.156108,-0.30845 0.117187,-0.43555 -0.03892,-0.1271 -0.108855,-0.20965 -0.171875,-0.28516 -0.06302,-0.0755 -0.12465,-0.14164 -0.166015,-0.19336 -0.04137,-0.0517 -0.04952,-0.0915 -0.04492,-0.0547 a 0.2544572,0.2544572 0 0 0 -0.04492,-0.11524 c -0.475142,-0.66906 -0.884633,-1.48986 -1.441406,-2.1582 a 0.2544572,0.2544572 0 0 0 -0.183594,-0.0918 z"
       inkscape:export-xdpi="304.92999"
       inkscape:export-ydpi="304.92999" />
    <path
       id="path855"
       style="font-style:normal;font-variant:normal;font-weight:normal;font-stretch:normal;font-size:20.461px;line-height:1.25;font-family:'Singer Mears';-inkscape-font-specification:'Singer Mears';font-variation-settings:normal;text-align:center;text-anchor:middle;opacity:1;vector-effect:none;fill:#ff9031;fill-opacity:1;stroke:#523b00;stroke-width:1.27881;stroke-linecap:butt;stroke-linejoin:miter;stroke-miterlimit:4;stroke-dasharray:none;stroke-dashoffset:0;stroke-opacity:1;paint-order:stroke fill markers;stop-color:#000000;stop-opacity:1"
       d="m 25.623834,100.41043 q -0.236809,-0.55746 -0.872203,-1.627286 -2.147677,-2.888868 -7.601212,-2.575799 -1.840521,0.0945 -2.752557,0.25962 -0.196948,0.01344 -0.586151,0.108349 -0.761995,-0.04812 -2.063244,0.211509 -0.656489,0.04584 -1.9342947,0.168747 -0.4947094,7.53e-4 -1.30594,0.19242 -0.3938925,0.02756 -1.2145021,0.08482 -0.8206096,0.05727 -1.2473259,0.08697 -0.058613,0.105392 -0.1430176,0.313849 0.00469,0.06721 0.119583,1.240917 l 0.2977917,3.321824 1.3693509,13.00471 q 0.2039984,2.45049 0.6565297,5.15376 0.1430218,0.1588 3.355121,-0.13295 3.0808,-0.28251 3.695085,-0.46043 0.09613,-0.0405 0.283695,-0.18862 0.168808,-0.41696 -0.145376,-2.08321 -0.04689,-0.67199 -0.208691,-2.04501 -0.23682,-1.97552 -0.166485,-2.38558 1.439584,-0.168 4.311713,-0.60481 6.145182,-1.27295 6.939957,-6.8994 0.13833,-0.85375 0.07501,-1.76094 -0.128957,-1.84799 -0.862839,-3.38367 z m -2.738507,-1.902245 q 0.832334,0.110769 1.570895,1.713615 l -0.06565,0.005 q 0.0047,0.0672 -0.126604,0.0764 -0.260251,0.0519 -0.76669,-0.58802 -0.506437,-0.639915 -0.712762,-0.760564 0.05624,-0.139106 0.100807,-0.445991 z M 19.825615,97.20238 q 2.147653,0.0527 1.978849,0.942326 -0.196947,0.01344 -1.104309,-0.22682 -0.874538,-0.242831 -0.94722,-0.339041 0.02344,-0.136673 0.07268,-0.376465 z m -0.5908,4.76813 q -0.0047,-0.0672 0.126604,-0.0764 l -0.0047,-0.0672 q 0.928465,0.54295 1.015225,1.78616 0.01641,0.23519 -0.03518,0.44135 -0.09613,0.0405 -0.323554,0.0902 l -0.0047,-0.0672 q -0.06565,0.005 -0.147703,-0.22603 -0.05158,-0.2665 -0.192257,-0.86444 -0.147702,-0.22604 -0.332938,-0.51697 -0.152387,-0.29326 -0.100834,-0.49942 z m -0.180495,4.97585 q 0.02343,-0.13684 0.405609,-0.80489 0.382165,-0.66817 0.539252,-0.78041 l -0.0047,-0.0672 q 0.307142,0.14741 0.325903,0.41619 0.0211,0.30239 -0.342306,0.76668 -0.274315,0.32302 -0.548631,0.64603 l -0.293075,0.0542 -0.0047,-0.0672 q -0.03515,-0.0312 -0.07738,-0.16339 z m -2.618995,-9.642447 -0.007,-0.100686 q 1.573226,-0.143515 1.943672,-0.03428 0.03984,0.0984 0.05158,0.266503 -0.07972,0.275671 -0.642419,0.247414 -0.691656,0.01465 -0.787787,0.05498 -0.264938,-0.01465 -0.694001,-0.01909 l -0.04221,-0.132277 q 0.05627,-0.138945 0.178187,-0.282541 z m -0.623634,3.825047 q 1.767829,-0.1909 2.112486,0.0214 0.135987,0.0581 0.288389,0.3513 -0.09847,0.007 -0.114882,0.24436 -0.234458,-0.0512 -0.799508,-0.11305 -0.459542,0.032 -0.919084,0.0641 -0.593183,0.008 -0.616634,-0.32837 -0.007,-0.10068 0.04923,-0.23978 z m -2.881538,-3.479124 -0.0047,-0.06721 q 1.735001,-0.188603 2.077314,-0.0094 l 0.05392,0.300096 -0.06565,0.0054 q 0.0047,0.06721 -0.06096,0.07179 -0.588496,0.07488 -1.144165,0.147414 -0.951907,0.06641 -0.968318,-0.168761 -0.007,-0.100687 0.11253,-0.277957 z m -0.29303,5.726494 q 0.433751,0.071 0.550987,0.80563 0.173509,1.06832 0.213363,1.16686 -0.09378,0.0741 -0.246183,0.2535 l 0.0047,0.0672 q -0.03517,-0.0312 -0.138331,-0.0917 -0.208669,-0.15424 -0.335284,-1.02326 -0.121926,-0.80182 -0.04926,-1.17829 z M 7.0311442,98.196568 q 1.0152114,-0.104585 1.0058351,0.233663 0.00941,0.134428 -0.2110115,0.284839 -0.1875672,0.148059 -0.2461804,0.253531 L 7.4719359,99.78645 q -0.3587235,0.0587 -0.4970592,-0.505533 -0.060963,-0.400918 -0.1242651,-0.835415 0.032827,-0.0013 0.1805326,-0.248934 z m 1.0176365,9.855472 q 0.3704469,0.10916 0.43141,0.51011 0.091438,0.365 0.1524036,0.76592 0.1430245,0.63154 0.065654,0.94081 -0.030475,0.0359 -0.192256,0.0808 -0.3634137,-0.008 -0.4665831,-1.0141 -0.091451,-0.83769 0.00941,-1.28366 z m -0.3446838,-3.52112 q 0.067994,0.029 0.2672843,0.0488 0.011695,0.16801 0.1477147,0.69875 0.1664714,0.49483 0.1852295,0.76363 0.044549,0.63842 -0.4384338,0.80716 -0.2110303,-2.07862 -0.1617947,-2.31839 z m -0.436123,-3.41345 q 0.1312957,-0.009 0.3704469,0.10916 0.1406882,0.12542 0.3376385,2.00225 l -0.065655,0.005 0.00471,0.0672 q -0.457196,0.0657 -0.6236701,-0.90185 -0.079716,-0.66972 -0.023458,-1.28138 z m 1.1583166,10.45342 q 0.1336482,0.0245 0.3399681,0.14513 0.112543,0.19471 0.1992987,0.96522 0.084407,0.73689 0.037519,1.01029 -0.025797,0.10311 -0.1805326,0.24894 Q 8.6818677,113.81518 8.5294668,113.522 8.14963,112.333 8.4262934,111.57092 Z m 0.3798609,4.4978 q -0.021105,-0.30238 0.00229,-0.91177 0.1336482,0.0245 0.3399681,0.14513 0.112543,0.19471 0.1735074,1.06832 0.056272,0.80641 -0.023431,1.08208 -0.3610679,0.0253 -0.4642346,-0.50782 0.049241,0.23291 -0.028136,-0.8759 z m 2.8182336,3.04463 -0.06565,0.005 q 0.0047,0.0672 -0.354035,0.12596 -0.454851,0.0992 -0.520501,0.10378 -1.4724055,0.17028 -1.5122688,-0.40092 -0.00941,-0.13442 0.046889,-0.27338 l 0.7995108,0.11305 q 0.555669,-0.0726 1.587292,0.0581 z M 9.3593329,98.472992 q -0.00699,-0.100686 -0.046888,-0.199289 0.1195736,-0.177176 0.2133572,-0.251246 l -0.037519,-0.06493 1.9975969,-0.206938 0.0047,0.06721 q 0.06565,-0.0054 0.07035,0.06264 0.01875,0.268802 -0.201632,0.419241 -0.22038,0.150653 -1.008167,0.205553 -0.7901289,0.02137 -0.991764,-0.03199 z m 4.2016901,20.505158 q 0,0 -0.621319,0.0772 -0.03984,-0.0984 -0.05392,-0.3001 0.05159,-0.20615 0.569737,-0.34363 0.518155,-0.13748 0.696342,-0.42 0.400925,0.0734 0.450166,0.30624 0.128956,0.42993 -0.257902,0.5582 -0.09613,0.0405 -0.783095,0.1222 z m 0.853414,-2.423 q -0.0891,0.14122 -0.379825,0.2291 l -0.0047,-0.0672 q -0.06565,0.005 -0.07504,-0.12985 -0.192278,-1.80981 -0.08207,-2.12137 0.06799,0.0289 0.267286,0.0488 0.06565,-0.005 0.07504,0.12985 0.10082,0.49943 0.201637,0.99884 0.08441,0.73694 -0.0023,0.91179 z m 0.241455,-4.57494 -0.06566,0.005 q 0.0047,0.0672 -0.189911,0.11453 -0.194603,0.0473 -0.225081,0.0833 -0.06799,0.44366 -0.157073,1.05763 -0.391548,0.061 -0.511129,-0.70714 -0.07502,-0.60252 0.06095,-1.01715 0.363411,0.008 1.033969,0.16418 z m -0.206351,-3.90217 q 0.0047,0.0672 -0.386859,0.12824 -0.391547,0.061 -0.422026,0.0969 -0.588494,0.0749 -0.640081,-0.66439 -0.02344,-0.33597 0.08439,-0.68113 0.09847,-0.007 0.332931,0.0442 0.06799,0.50169 0.50644,0.63991 0.471262,0.13586 0.590842,0.43145 z m -1.470111,-5.9411 q -0.459543,0.032 -0.482991,-0.30391 -0.0047,-0.0672 0.05629,-0.13896 0.09144,-0.10767 0.311828,-0.25813 1.538055,-0.17485 1.55916,0.12758 0.05392,0.30011 -0.565044,0.41082 -0.846401,0.16043 -0.879225,0.16271 z m 2.947237,9.61953 q -0.0047,-0.0672 -0.04455,-0.1657 0.02814,-0.0695 0.08205,-0.24207 -0.166466,-0.0222 1.111341,-0.14513 0.853433,-0.0596 0.872191,0.20923 0.02111,0.30239 -0.862806,0.39786 -0.853436,0.0596 -1.158244,-0.0543 z m 1.89675,-4.01517 q 0.0023,0.0337 -0.485331,0.1352 -0.490022,0.068 -0.553324,0.10607 -0.361069,0.0253 -1.085548,0.0419 l -0.06332,-0.43451 0.06565,-0.005 q -0.0047,-0.0672 0.288384,-0.12139 0.325899,-0.0565 0.325899,-0.0565 1.113685,-0.11144 0.916737,-0.0977 0.494711,-7.6e-4 0.656492,0.42689 z m -1.179343,-1.30202 q -1.735002,0.1886 -2.042145,0.0413 -0.171157,-0.0894 -0.377494,-1.62807 -0.203993,-1.50512 -0.09145,-1.78308 -0.0023,-0.0335 0.248527,-0.21995 0.919082,-0.0641 1.050378,-0.0734 0.62132,-0.0772 1.242639,-0.15425 0.787784,-0.055 1.226225,0.0833 1.008179,0.26727 1.104319,1.64487 0.05159,0.73919 -0.309476,1.23709 -0.283695,0.18861 -0.912044,0.63763 -0.426718,0.0297 -1.139474,0.21456 z m 3.828766,4.76358 q -0.161775,0.045 -0.48533,0.1352 l -0.686968,0.0817 -0.0047,-0.0672 q -0.04221,-0.13228 -0.02578,-0.3696 -0.0047,-0.0672 0.05862,-0.10539 0.555668,-0.0726 1.615425,-0.48414 0.431404,0.0374 0.459544,0.44063 z m 3.676312,-2.62002 q -0.23914,0.82703 -1.380957,1.4807 -0.06798,-0.0289 -0.173501,-0.123 -0.114882,-0.22834 0.405611,-0.80488 0.337618,-0.36118 0.705719,-0.75828 l 0.426716,-0.0297 0.0047,0.0672 q 0.03517,0.0312 0.01169,0.16799 z m 1.315297,-3.36684 q 0.03752,1.48296 -0.614269,2.06869 -0.06798,-0.0289 -0.135987,-0.0581 -0.112543,-0.19476 -0.119573,-0.29555 -0.07736,-0.63609 0.429048,-1.88692 l 0.361068,-0.0253 0.0047,0.0672 q 0.03515,0.0312 0.07502,0.12999 z m -0.06567,-1.41351 q -0.328242,0.023 -0.593189,-0.93775 -0.23447,-0.99654 -0.159433,-1.3394 0.166466,0.0222 0.431405,0.0374 0.01877,0.2688 0.189914,0.83084 0.168809,0.52844 0.189913,0.83084 0.02111,0.3024 -0.05861,0.57808 z"
       inkscape:export-xdpi="304.92999"
       inkscape:export-ydpi="304.92999" />
    <path
       id="path857"
       style="font-style:normal;font-variant:normal;font-weight:normal;font-stretch:normal;font-size:20.461px;line-height:1.25;font-family:'Singer Mears';-inkscape-font-specification:'Singer Mears';font-variation-settings:normal;text-align:center;text-anchor:middle;vector-effect:none;fill:#ff9031;fill-opacity:1;stroke:#523b00;stroke-width:1.27881;stroke-linecap:butt;stroke-linejoin:miter;stroke-miterlimit:4;stroke-dasharray:none;stroke-dashoffset:0;stroke-opacity:1;paint-order:stroke fill markers;stop-color:#000000"
       d="m 31.672594,107.63979 c -0.01345,-6.7e-4 -0.01933,-0.0149 -0.01763,-0.0426 -0.04871,-0.086 -0.402757,-0.14937 -1.06213,-0.19015 -0.0942,-0.006 -0.269558,-0.01 -0.526085,-0.0118 -0.215306,-0.0133 -0.383514,-0.0237 -0.504623,-0.0312 -0.349871,-0.0217 -0.531536,-0.0329 -0.544993,-0.0337 -0.294341,-0.0459 -0.582379,-0.0844 -0.864116,-0.11567 -0.415451,-0.0533 -0.685861,-0.0493 -0.81123,0.012 -0.06899,0.0234 -0.119067,0.0687 -0.15024,0.1359 -0.05315,0.20412 -0.139173,0.503 -0.258079,0.89664 -0.183807,0.56937 -0.45909,1.41655 -0.825849,2.54152 -0.04037,-0.003 -0.06686,-0.0112 -0.07946,-0.0256 -0.0126,-0.0146 -0.03151,-0.0365 -0.05672,-0.0657 -0.03015,-0.16779 -0.06864,-0.41907 -0.115472,-0.75382 l -0.261089,-1.67542 c -0.02418,-0.26421 -0.08149,-0.64801 -0.171931,-1.15138 0.0034,-0.0551 -0.195893,-0.10894 -0.597878,-0.16143 -0.388538,-0.0517 -0.624454,-0.0593 -0.707749,-0.023 -0.671979,-0.0554 -1.685822,-0.15268 -3.04153,-0.29183 -0.148023,-0.009 -0.223738,0.0138 -0.227145,0.0689 -8.67e-4,0.0138 0.01046,0.0491 0.03397,0.1058 0.03696,0.0577 0.05501,0.0934 0.05416,0.10707 l 0.09811,0.3794 c 0.08721,0.33725 0.211285,0.8427 0.372238,1.51637 0.01839,0.13941 0.05314,0.34205 0.104233,0.60793 0.0218,0.0843 0.447514,2.04646 1.277143,5.88644 l 0.252669,1.15637 c 0.09555,0.42073 0.118881,0.69872 0.06999,0.83397 -0.873822,-0.0679 -1.3385,-0.0898 -1.394035,-0.0655 L 21.2125,117.2181 c -0.03458,0.1223 -0.08057,0.31995 -0.137985,0.59295 -0.0025,0.0413 -0.05067,0.8196 -0.144412,2.33479 -0.02556,0.41323 -0.02616,0.64134 -0.0018,0.68433 0.03526,0.0851 0.133628,0.13271 0.295105,0.1427 0.201849,0.0125 0.511351,0.0316 0.928505,0.0574 1.128651,0.0975 1.774141,0.1443 1.936472,0.14052 0.324663,-0.008 0.596777,-0.0392 0.816343,-0.0947 0.522426,-0.14743 1.007978,-0.46308 1.456656,-0.94694 0.303036,-0.31311 0.62226,-0.88794 0.957672,-1.72449 0.126397,-0.29638 0.316417,-0.74784 0.570061,-1.35437 l 2.122341,-5.15766 c 0.226731,-0.6082 0.593742,-1.51884 1.101032,-2.73192 0.392646,-0.88831 0.579346,-1.39529 0.560101,-1.52092 z m -6.340458,4.23304 c 0.05212,0.0309 0.109693,0.0828 0.172718,0.15587 0.05961,0.12813 0.107388,0.3385 0.143325,0.63109 0.03593,0.2926 0.03618,0.50694 7.46e-4,0.64302 -0.05383,-0.003 -0.133288,-0.029 -0.238385,-0.077 -0.07478,-0.10141 -0.121699,-0.32555 -0.14077,-0.67241 -0.01992,-0.33309 8.67e-4,-0.55996 0.06236,-0.6806 z m -3.084909,-2.86637 c -0.107653,-0.007 -0.213514,-0.15149 -0.317583,-0.43446 -0.08976,-0.29593 -0.128251,-0.54721 -0.115472,-0.75382 0.0077,-0.12397 0.03254,-0.19848 0.07461,-0.22353 l 0.0026,-0.0413 c 0.309328,0.24036 0.446526,0.64292 0.411595,1.20767 -0.0068,0.11021 -0.02539,0.19203 -0.0557,0.24546 z m 0.439936,2.05981 c -0.122814,0.0201 -0.234126,-0.14583 -0.333935,-0.4977 -0.08891,-0.3097 -0.122376,-0.533 -0.100399,-0.66991 0.0043,-0.0689 0.04259,-0.14255 0.114982,-0.22104 0.116849,0.0764 0.192477,0.164 0.226883,0.26292 l 0.159413,1.02617 c -0.0034,0.0551 -0.02571,0.0883 -0.06694,0.0996 z m -0.219407,-3.33211 0.0026,-0.0413 c -0.02606,-0.0155 -0.03867,-0.0301 -0.03782,-0.0438 0.0051,-0.0827 0.07037,-0.15467 0.195722,-0.21605 l 0.0026,-0.0413 c 0.242218,0.015 0.484437,0.03 0.726656,0.0449 0.321255,0.0475 0.511263,0.14225 0.570026,0.28416 -0.04037,-0.003 -0.102199,0.0142 -0.185498,0.0507 -0.06899,0.0234 -0.123665,0.0338 -0.164035,0.0313 -0.08074,-0.005 -0.450796,-0.0276 -1.110169,-0.0687 z m 0.549471,5.53032 c 0.0017,-0.0275 -0.02262,-0.0705 -0.07307,-0.12897 -0.04957,-0.0722 -0.07392,-0.11519 -0.07307,-0.12896 -0.184634,-0.5092 -0.200297,-0.91116 -0.04699,-1.20588 0.284118,0.21115 0.410415,0.57156 0.378891,1.08123 -0.01193,0.19283 -0.07385,0.32036 -0.185761,0.38258 z m 0.198768,0.71748 0.0038,-0.062 c 0.06558,0.0317 0.124431,0.063 0.176552,0.0939 0.191625,0.17779 0.274657,0.47331 0.249098,0.88654 -0.01193,0.19284 -0.06082,0.32809 -0.146669,0.40574 -0.0017,0.0275 -0.02277,0.0401 -0.06311,0.0376 0.0017,-0.0275 -0.01087,-0.0421 -0.03781,-0.0438 0.0043,-0.0689 -0.03848,-0.25127 -0.128252,-0.5472 -0.08976,-0.29592 -0.131233,-0.49898 -0.124417,-0.60917 0.0051,-0.0827 0.02873,-0.13651 0.07078,-0.16156 z m -1.497134,5.86004 c -0.134566,-0.008 -0.191199,-0.18468 -0.169899,-0.52904 0.02726,-0.44078 0.104428,-0.70563 0.231504,-0.79456 l 0.0026,-0.0413 c 0.03952,0.0163 0.07776,0.0532 0.114719,0.1108 0.04615,0.1273 0.05228,0.35583 0.01838,0.68558 -0.02301,0.37192 -0.08876,0.56144 -0.197263,0.56855 z m 0.510034,-2.02181 c 0.296897,0.005 0.732958,0.0524 1.308184,0.14313 -0.0034,0.0551 -0.02827,0.12964 -0.07461,0.22353 -0.113617,0.0898 -0.364694,0.1088 -0.753232,0.0571 -0.362476,-0.0363 -0.540306,-0.10949 -0.53349,-0.21966 0.0034,-0.0551 0.02112,-0.12311 0.05315,-0.20413 z m 0.34104,2.67594 c -0.201849,-0.0125 -0.380531,-0.0719 -0.536045,-0.17835 0.0051,-0.0827 0.125478,-0.17199 0.361034,-0.26804 0.200997,0.0263 0.395265,0.0521 0.582806,0.0775 0.293489,0.0596 0.437252,0.13763 0.431288,0.23408 0.0075,0.0972 -0.05017,0.15591 -0.172981,0.17598 -0.06813,0.01 -0.189245,0.002 -0.363329,-0.0225 -0.160623,-0.0238 -0.261547,-0.03 -0.302773,-0.0187 z m 1.387718,-3.10827 c -0.153979,-0.0937 -0.236904,-0.46097 -0.265703,-0.61741 -0.04598,-0.34853 -0.04495,-0.58354 0.0031,-0.70501 0.185836,0.053 0.30345,0.2262 0.352841,0.51961 0.0109,0.0421 0.02963,0.28527 0.0562,0.7294 -0.0017,0.0275 -0.05053,0.0522 -0.146406,0.0739 z m 1.044944,-8.37691 c -0.161479,-0.01 -0.27739,-0.21075 -0.347731,-0.60225 -0.04598,-0.34853 -0.04955,-0.61838 -0.01071,-0.80956 0.06643,0.0179 0.166506,0.0379 0.300217,0.06 -0.01023,0.16529 0.0035,0.38046 0.04112,0.64551 0.04769,0.32098 0.0677,0.54346 0.06003,0.66743 l -0.04036,-0.003 z m -0.0031,0.705 c 0.05297,0.0171 0.124003,0.0699 0.213088,0.15837 0.118379,0.27004 0.164362,0.61856 0.137951,1.04557 -0.0068,0.11021 -0.03083,0.17095 -0.07206,0.18222 -0.123665,0.0339 -0.217348,-0.0895 -0.281047,-0.36999 -0.05365,-0.22455 -0.07196,-0.47458 -0.05492,-0.75007 0.0077,-0.12396 0.02666,-0.21266 0.05698,-0.2661 z m 0.450995,10.39834 c -0.468876,0.31797 -1.115948,0.50889 -1.201132,0.0916 0.134566,0.008 0.45676,-0.0685 0.966582,-0.23059 l 0.0026,-0.0413 c 0.09249,0.0334 0.157219,0.0789 0.19418,0.13647 0.02691,0.001 0.03951,0.0159 0.03781,0.0438 z m 0.397941,-5.45098 c -0.174936,-0.0108 -0.292976,-0.17712 -0.354119,-0.49895 0.01345,6.7e-4 0.08457,-0.0572 0.213349,-0.17346 0.128778,-0.11648 0.207049,-0.18078 0.234814,-0.19289 l 0.0026,-0.0413 c 0.09078,0.061 0.132344,0.15345 0.12468,0.27735 -0.01107,0.17907 -0.08483,0.38883 -0.221281,0.62928 z m 0.281346,-1.60039 0.0026,-0.0413 c -0.02691,-0.001 -0.03193,-0.0293 -0.01506,-0.084 0.03135,-0.28843 0.144374,-0.69625 0.339082,-1.22348 0.185837,0.053 0.273643,0.16214 0.263419,0.32742 -0.01449,0.23417 -0.137563,0.58607 -0.369229,1.05569 z m -0.07194,6.40449 -0.0026,0.0413 c -0.134565,-0.008 -0.198866,-0.0607 -0.192901,-0.15713 0.0051,-0.0826 0.0599,-0.20369 0.164296,-0.36316 0.05893,-0.0793 0.11157,-0.16595 0.157909,-0.25988 0.01516,-0.0267 0.09352,-0.20163 0.235076,-0.5247 0.131158,0.0634 0.191625,0.17775 0.181402,0.34306 -0.02471,0.39946 -0.205782,0.70629 -0.543226,0.92049 z m 0.928948,-8.46705 c -0.134566,-0.008 -0.195885,-0.10892 -0.183958,-0.30175 l 0.327581,-1.03753 c 0.09334,0.0196 0.192138,0.0603 0.296383,0.12204 -0.03135,0.28843 -0.178015,0.69418 -0.440006,1.21724 z m 0.49914,5.36128 c -0.02368,0.16447 -0.184232,0.57627 -0.481655,1.23541 -0.133714,-0.0221 -0.195459,-0.11577 -0.185234,-0.2811 0.02385,-0.38569 0.181423,-0.74928 0.472708,-1.09077 0.04037,0.003 0.09334,0.0198 0.158924,0.0513 0.02691,10e-4 0.03867,0.0297 0.03526,0.0851 z m 0.721986,-8.39688 c -0.01771,0.068 -0.06907,0.134 -0.154075,0.19788 -0.08415,0.0501 -0.133801,0.0885 -0.148961,0.11522 -0.03373,0.10853 -0.07419,0.21665 -0.121372,0.32436 -0.0649,0.17573 -0.130993,0.26152 -0.198279,0.25736 -0.0942,-0.006 -0.137034,-0.0778 -0.128514,-0.21536 0.02385,-0.38569 0.114053,-0.64283 0.270598,-0.77142 0.06899,-0.0234 0.172041,-0.0516 0.309162,-0.0846 0.04037,0.003 0.100076,0.0202 0.179109,0.0526 l -0.0051,0.0826 c 0.02691,0.002 0.02604,0.0158 -0.0026,0.0413 z m -0.508112,7.55972 c -0.03952,-0.0163 -0.0563,-0.0726 -0.05033,-0.16903 0.0213,-0.34437 0.152809,-0.7234 0.394526,-1.13709 0.03952,0.0163 0.08577,0.033 0.138738,0.0501 0.05297,0.0171 0.07776,0.0532 0.07435,0.10831 0.0032,0.16613 -0.05165,0.3978 -0.164561,0.69501 -0.128953,0.33771 -0.25986,0.48862 -0.392721,0.45274 z m 0.873361,-1.99932 -0.0026,0.0413 -0.08074,-0.005 c 8.67e-4,-0.0138 -0.03107,-0.0435 -0.09581,-0.089 l -0.04036,-0.002 c 0.112087,-0.28344 0.300404,-0.70735 0.564949,-1.27173 0.11685,0.0764 0.171867,0.16964 0.165051,0.27984 -0.01023,0.16529 -0.07683,0.36858 -0.199819,0.60986 -0.109532,0.24212 -0.2131,0.38782 -0.310703,0.43709 z m 1.132455,-2.58478 c -0.03543,0.13608 -0.108768,0.33895 -0.220004,0.60862 -0.134566,-0.008 -0.196737,-0.0951 -0.186513,-0.26043 0.02385,-0.38569 0.195306,-0.75533 0.514357,-1.10894 0.05213,0.0309 0.102119,0.0962 0.149978,0.19595 -0.0051,0.0826 -0.03801,0.1774 -0.09863,0.28427 -0.103569,0.14569 -0.156631,0.2392 -0.159187,0.28053 z m 0.639564,-1.49527 c -0.0025,0.0413 -0.09171,0.0635 -0.267522,0.0665 l 0.0026,-0.0413 c -0.02691,-0.001 -0.03867,-0.0297 -0.03526,-0.0851 0.109532,-0.24212 0.240614,-0.61426 0.393246,-1.11642 l -0.141291,-0.009 c -0.0025,0.0413 -0.03072,0.0603 -0.08457,0.057 -0.610659,0.0452 -1.046293,-0.009 -1.306901,-0.1639 0.0025,-0.0413 0.05474,-0.12107 0.15663,-0.2392 0.242219,0.015 0.484437,0.03 0.726656,0.0449 0.321255,0.0475 0.504962,0.13495 0.55112,0.26224 0.255675,0.0158 0.378827,0.0995 0.369456,0.251 -0.01533,0.24795 -0.136706,0.5723 -0.364117,0.97305 z"
       sodipodi:nodetypes="sccccccccccccccccccsccsccccccccscsccccccccssscsccccsscsccscscccccccccccccccccccccccsccccscccsscccsccccccccccsccccccccccccccccccccccccccscsccsssccccccccccccsccccccsccccscccscccccccscsccsscccccccccccccscsccccccccccscccscscccsscccccccccccscc"
       inkscape:export-xdpi="304.92999"
       inkscape:export-ydpi="304.92999" />
    <path
       id="path859"
       style="font-style:normal;font-variant:normal;font-weight:normal;font-stretch:normal;font-size:20.461px;line-height:1.25;font-family:'Singer Mears';-inkscape-font-specification:'Singer Mears';font-variation-settings:normal;text-align:center;text-anchor:middle;vector-effect:none;fill:#ff9031;fill-opacity:1;stroke:#523b00;stroke-width:1.27881;stroke-linecap:butt;stroke-linejoin:miter;stroke-miterlimit:4;stroke-dasharray:none;stroke-dashoffset:0;stroke-opacity:1;paint-order:stroke fill markers;stop-color:#000000"
       d="m 42.57336,106.65163 -0.04038,0.002 c -0.0017,-0.0275 -0.01594,-0.0405 -0.04283,-0.0389 -0.716579,-0.0127 -1.081188,-0.0117 -1.093827,0.003 -0.162322,-0.004 -0.391936,-0.004 -0.688843,-5.2e-4 -0.297727,-0.01 -0.521022,-0.0174 -0.669885,-0.0224 l -0.343193,0.0204 -0.586675,0.0141 c -0.187601,0.025 -0.456363,0.0479 -0.806285,0.0687 l -1.147719,-0.2221 -0.811198,-0.014 c -0.200241,0.0395 -0.493462,0.10536 -0.879663,0.19747 -0.796865,0.2271 -1.454408,0.63947 -1.972628,1.23711 -1.000157,1.12401 -1.446177,2.59527 -1.338061,4.41378 0.07126,1.19856 0.407769,2.20162 1.009532,3.00919 0.09058,0.16051 0.258457,0.37173 0.503634,0.63366 l 0.0049,0.0827 c -0.04037,0.003 -0.05974,0.0176 -0.05811,0.0449 l -0.341965,0.0411 -0.62705,0.0165 -0.26367,-0.005 c 0.0033,0.0552 -0.0053,0.13866 -0.02563,0.25039 -0.03383,0.11261 -0.04869,0.20335 -0.04459,0.27224 0.01579,1.1742 0.251126,2.06576 0.706017,2.67469 0.45571,0.62269 1.137935,1.07983 2.046676,1.37144 0.853268,0.26725 1.777869,0.37127 2.773802,0.31206 1.870739,-0.11122 3.215663,-0.66124 4.034772,-1.65005 0.402825,-0.49401 0.64655,-1.1652 0.731173,-2.01357 0.02727,-0.22283 0.03811,-0.9493 0.0325,-2.17941 0.0051,-1.05102 -0.0029,-1.86624 -0.02385,-2.44566 -0.0037,-0.2901 -0.0034,-0.73944 8.89e-4,-1.34802 z m -3.65193,3.65961 0.166423,0.0731 c 0.09912,0.077 0.166062,0.29428 0.200817,0.65167 0.01884,0.31685 -8.83e-4,0.55305 -0.05917,0.7086 -0.134585,0.008 -0.234761,-0.20034 -0.300527,-0.62501 -0.06413,-0.39712 -0.06663,-0.66656 -0.0075,-0.80832 z m 0.370859,5.55643 c -0.0371,0.0575 -0.188187,0.12873 -0.453262,0.21359 -0.265076,0.0849 -0.452267,0.11675 -0.561573,0.0956 l 0.01527,-0.0839 c -0.08075,0.005 0.02118,-0.0982 0.305805,-0.30852 0.297261,-0.22505 0.485448,-0.35375 0.564561,-0.3861 l 0.01773,-0.0425 c 0.111763,0.0625 0.170921,0.14881 0.177474,0.25904 0.0057,0.0964 -0.01627,0.18069 -0.06601,0.25277 z m -0.135897,2.14409 c -0.189238,-0.003 -0.287952,-0.0728 -0.296143,-0.21052 0.107293,-0.40379 0.166612,-0.78642 0.274392,-1.17763 0.152139,0.0601 0.233942,0.18654 0.245409,0.37943 0.0082,0.13777 -0.06636,0.47401 -0.223658,1.00872 z m -2.858573,-1.73794 0.0416,0.0183 c 0.201059,-0.0258 0.442085,-0.0609 0.723077,-0.1052 0.35156,0.007 0.530616,0.0652 0.537169,0.17544 0.0017,0.0275 -0.0038,0.0486 -0.0165,0.0632 -0.01264,0.0146 -0.07707,0.0668 -0.193278,0.15666 -0.256531,10e-4 -0.608501,-0.0123 -1.05591,-0.0409 l -0.0025,-0.0413 c -0.02691,10e-4 -0.03815,-0.074 -0.0337,-0.22611 z m 0.620404,-2.17289 -0.0025,-0.0413 c 0.09585,0.0219 0.23921,0.048 0.430087,0.0781 0.148044,-0.009 0.302408,-0.0249 0.463092,-0.0483 0.189238,0.003 0.31446,0.0644 0.375667,0.18505 -0.02691,0.001 -0.06606,0.0244 -0.117442,0.0692 -0.05219,0.0307 -0.08461,0.0534 -0.09725,0.068 -0.135405,-0.006 -0.315867,0.0255 -0.541386,0.0944 -0.137042,-0.0333 -0.348107,-0.0623 -0.633194,-0.0868 l -0.0025,-0.0413 c -0.02774,-0.0122 -0.04202,-0.0252 -0.04284,-0.0389 -0.0049,-0.0827 0.05112,-0.16205 0.168176,-0.23813 z m 1.186,-0.83781 c -0.01264,0.0146 -0.15577,0.10606 -0.42939,0.27438 -0.391117,0.009 -0.658063,-0.0508 -0.800839,-0.1805 -0.215802,-0.22219 -0.342541,-0.65015 -0.380218,-1.28388 -0.04587,-0.77149 0.04291,-1.32287 0.266321,-1.65413 0.02445,-0.0429 0.194091,-0.14288 0.508913,-0.29984 0.189239,0.003 0.324643,0.008 0.406213,0.0173 0.16396,0.0317 0.282043,0.0869 0.35425,0.16558 0.201525,0.20922 0.320716,0.6238 0.357573,1.24375 0.04833,0.81282 -0.04595,1.38526 -0.282823,1.71732 z m -1.202361,3.97021 c -0.0017,-0.0275 0.03789,-0.0437 0.11867,-0.0485 0.499604,-0.002 0.893765,-0.0738 1.182482,-0.21547 0.04119,0.0114 0.102576,0.0216 0.184147,0.0305 0.02773,0.0122 0.03651,0.0462 0.02633,0.10212 -0.03417,0.33384 -0.280057,0.51436 -0.73765,0.54157 -0.457591,0.0272 -0.729042,-0.10874 -0.814355,-0.40782 z m 1.769547,-3.63064 c 0.04728,-0.11342 0.180348,-0.4877 0.399204,-1.12284 l 0.203107,0.009 c 0.01159,0.64909 -0.151442,1.08736 -0.489086,1.31482 -8e-4,-0.0138 -0.03058,-0.0604 -0.08935,-0.13985 -0.02692,0.001 -0.03488,-0.0189 -0.02387,-0.0608 z m -1.215936,-6.48089 c 0.874453,0.16922 1.271126,0.36684 1.190021,0.59287 -0.011,0.0421 -0.04342,0.0648 -0.09725,0.068 -0.07993,0.0186 -0.278356,-0.0249 -0.595275,-0.13052 -0.304279,-0.12016 -0.478245,-0.20659 -0.521896,-0.2593 -0.04447,-0.0665 -0.03634,-0.15682 0.0244,-0.27105 z m 1.156822,2.41977 c 0.0049,0.0827 -0.06417,0.16972 -0.207322,0.26119 -0.0057,-0.0964 -0.192338,-0.1683 -0.559815,-0.21558 -0.354837,-0.0619 -0.605868,-0.0815 -0.753093,-0.0589 -0.280991,0.0443 -0.477135,0.15277 -0.588434,0.32531 -0.148867,-0.005 -0.226165,-0.056 -0.231895,-0.15212 -0.0049,-0.0827 0.220763,-0.26197 0.677089,-0.53795 0.299364,0.0375 0.591589,0.0685 0.876676,0.093 0.314461,0.0643 0.576725,0.15927 0.786794,0.28502 z m -2.172355,-2.46308 0.170102,0.13505 c -0.0061,0.12479 -0.10882,0.21386 -0.308261,0.26719 -0.280173,0.0581 -0.433308,0.0949 -0.459407,0.11026 -0.106849,0.0202 -0.220837,0.0339 -0.341964,0.0411 -0.148863,-0.005 -0.206382,-0.0635 -0.172559,-0.17638 0.01954,-0.12559 0.176128,-0.21786 0.469764,-0.27679 0.214517,-0.0266 0.428626,-0.0601 0.642325,-0.1004 z m -2.042488,0.74357 c 0.09585,0.0219 0.178647,0.0516 0.248396,0.0889 0.0074,0.12399 -0.04623,0.2447 -0.160804,0.36211 -0.115393,0.10363 -0.224467,0.19998 -0.327221,0.28904 l -0.30089,0.39117 c -0.06729,0.004 -0.138272,-0.054 -0.212936,-0.17398 -0.0065,-0.11021 0.09844,-0.27544 0.314936,-0.49569 0.139853,-0.14657 0.286026,-0.30042 0.438519,-0.46157 z m -1.136855,1.66441 c 0.05465,0.0106 0.117674,0.0483 0.189061,0.11318 0.01591,0.0405 -0.02604,0.2435 -0.125873,0.60889 -0.110833,0.40752 -0.170931,0.64612 -0.180295,0.7158 -0.162321,-0.004 -0.249215,-0.10252 -0.260682,-0.29557 -0.02211,-0.37197 0.103816,-0.75273 0.377789,-1.1423 z m -0.398339,2.15968 c 0.05547,0.0243 0.118897,0.069 0.19029,0.13385 0.119955,0.20025 0.141658,0.56533 0.06511,1.09524 0.0017,0.0275 -0.02115,0.098 -0.06846,0.21145 -0.162321,-0.004 -0.254539,-0.19207 -0.276654,-0.56422 -0.02375,-0.39952 0.0061,-0.69163 0.08971,-0.87632 z m 0.228711,2.14314 c 0.05465,0.0106 0.130315,0.0338 0.226986,0.0696 0.05629,0.0381 0.153186,0.19136 0.290699,0.45968 0.150148,0.25375 0.234818,0.42845 0.25401,0.52408 0.01755,0.0681 0.0031,0.16572 -0.04336,0.29291 -0.121946,-0.007 -0.281866,-0.19762 -0.479761,-0.57287 -0.197895,-0.37535 -0.280751,-0.6331 -0.248566,-0.77327 z m 0.387202,4.80891 c -0.134585,0.008 -0.255536,-0.0954 -0.362851,-0.31024 -0.09386,-0.21562 -0.147746,-0.44053 -0.16167,-0.67473 -0.01311,-0.22043 0.0254,-0.36788 0.115514,-0.44236 l -0.0025,-0.0413 c 0.112583,0.0763 0.180928,0.20354 0.205034,0.38183 0.02329,0.16452 0.04616,0.32215 0.06863,0.4729 0.03183,0.081 0.102219,0.24277 0.211177,0.48515 -0.02691,0.001 -0.05137,0.0443 -0.07338,0.12879 z m 0.312141,-1.90571 c 0.243073,-6.3e-4 0.486146,-0.001 0.729219,-0.002 0.312004,0.0229 0.4666,0.12434 0.463789,0.30423 l 0.0025,0.0413 -1.357497,-0.002 -0.0025,-0.0413 c -0.02691,10e-4 -0.04078,-0.005 -0.0416,-0.0183 -0.0041,-0.0689 0.06463,-0.16284 0.206094,-0.28185 z m 1.352195,3.32062 c -0.148863,-0.005 -0.383391,-0.0875 -0.703586,-0.2485 -0.320195,-0.16069 -0.484387,-0.30992 -0.492578,-0.44769 -0.0033,-0.0551 0.02078,-0.10495 0.07215,-0.14945 l -0.0025,-0.0413 c 0.125223,0.0617 0.307146,0.16837 0.545769,0.3201 0.137861,0.0471 0.326104,0.14655 0.564729,0.29824 0.02937,0.0397 0.0612,0.12079 0.09549,0.24317 l -0.04037,0.002 c 0.0017,0.0275 -0.01138,0.0352 -0.03914,0.0231 z m 0.39186,-3.63169 c -0.189239,-0.003 -0.430496,-0.0851 -0.723773,-0.2473 -0.293277,-0.16229 -0.478477,-0.32409 -0.555598,-0.48541 -0.02691,0.001 0.03119,-0.0436 0.174318,-0.13479 l -0.0025,-0.0413 0.40077,0.26651 c 0.13868,0.0609 0.291228,0.12783 0.457645,0.2009 0.166417,0.0731 0.273908,0.17727 0.322475,0.31263 -0.02691,10e-4 -0.05137,0.0443 -0.07338,0.12879 z m 0.210197,-6.00574 c 0.05465,0.0106 0.131542,0.0544 0.230666,0.13145 0.03101,0.0673 0.0227,0.26825 -0.02493,0.60288 -0.03499,0.32006 -0.07613,0.5368 -0.123417,0.65021 -0.148044,0.009 -0.229847,-0.11768 -0.245409,-0.37943 -0.01884,-0.31686 0.03552,-0.6519 0.163094,-1.00511 z m -0.03741,2.09676 c 0.05465,0.0106 0.117265,0.0414 0.187834,0.0925 0.01591,0.0405 0.08162,0.23709 0.197131,0.58968 0.04775,0.12159 0.107138,0.32544 0.178173,0.61155 l -0.04038,0.002 0.0025,0.0413 c -0.162321,-0.004 -0.29632,-0.0997 -0.401997,-0.28717 -0.106497,-0.20105 -0.166707,-0.41867 -0.18063,-0.65287 -0.01065,-0.1791 0.0085,-0.31158 0.0574,-0.39743 z m 0.09036,4.24588 c 0.05465,0.0106 0.136633,0.0265 0.245939,0.0476 -0.0045,0.15235 0.04147,0.357 0.137798,0.61394 0.09549,0.24318 0.153656,0.42637 0.174486,0.54956 l -0.04038,0.002 0.0025,0.0413 c -0.148044,0.009 -0.275314,-0.0873 -0.38181,-0.28836 -0.106496,-0.20105 -0.166706,-0.41868 -0.180629,-0.65287 -0.0082,-0.13777 0.0059,-0.24229 0.04213,-0.31358 z m 1.417142,3.73152 c -0.04119,-0.0114 -0.123173,-0.0273 -0.245939,-0.0476 -0.216975,-0.0147 -0.448227,-0.0425 -0.693757,-0.0832 -0.244711,-0.0269 -0.339154,-0.13883 -0.283328,-0.3357 l 1.303079,0.10917 0.0025,0.0413 c 0.05465,0.0106 0.02715,0.11592 -0.08251,0.31597 z m -0.300863,-1.99369 c -0.06729,0.004 -0.05916,-0.0863 0.0244,-0.27103 0.148863,0.005 0.365838,0.0194 0.650925,0.0443 0.134585,-0.008 0.26326,-0.002 0.386025,0.0185 0.135404,0.006 0.200882,0.0851 0.196433,0.23717 -0.05301,0.017 -0.132125,0.0494 -0.237334,0.0972 -0.256531,0.001 -0.59668,-0.0407 -1.020448,-0.12598 z m 2.586303,1.58822 c -0.09175,0.0469 -0.229382,0.11733 -0.412887,0.21119 -0.243073,6.3e-4 -0.410077,0.0313 -0.50101,0.092 l -0.425173,0.005 -0.0025,-0.0413 c -0.05383,0.003 -0.0567,-0.0449 -0.0086,-0.14466 0.06156,-0.10043 0.232835,-0.17282 0.513826,-0.21718 0.347465,-0.0621 0.540976,-0.10129 0.580533,-0.11746 0.110945,0.0487 0.181923,0.10673 0.212936,0.17398 0.02691,-10e-4 0.04119,0.0116 0.04283,0.0389 z m -0.03901,-11.90122 -0.06056,0.004 c 0.0017,0.0275 -0.01138,0.0352 -0.03914,0.0231 -0.02773,-0.0122 -0.0828,-0.0297 -0.165189,-0.0524 -0.05875,-0.0795 -0.09385,-0.21562 -0.105319,-0.40849 0.002,-0.19367 0.03459,-0.32695 0.09778,-0.39983 0.03955,-0.0162 0.124986,-0.0558 0.256299,-0.11893 0.259808,0.0537 0.388306,0.17045 0.385495,0.35036 -0.269989,0.002 -0.393108,0.20287 -0.369355,0.60262 z m 2.246574,5.75598 c -4.67e-4,-0.23499 -0.0077,-0.46959 -0.02159,-0.7038 0.0097,-0.2909 0.05799,-0.50115 0.144832,-0.63074 0.02773,0.0122 0.08239,0.0228 0.16396,0.0317 0.03721,0.39872 0.04323,0.84077 0.01807,1.32615 -0.03709,0.0575 -0.122526,0.0972 -0.256298,0.11894 l -0.0025,-0.0413 c -0.02691,0.001 -0.04242,-0.0323 -0.04651,-0.10094 z m -0.94682,-6.72498 c 0.283449,-0.003 0.664383,0.0431 1.142804,0.13943 0.04037,-0.003 0.06097,0.003 0.06179,0.0171 0.0025,0.0413 -0.08724,0.12271 -0.269115,0.24412 l -0.668654,-0.002 c -0.243073,6.3e-4 -0.401123,-0.0453 -0.47415,-0.13772 -0.08075,0.005 -0.01164,-0.0824 0.207324,-0.26118 z m 1.160508,2.48176 0.0025,0.0413 c -0.148863,-0.005 -0.234352,-0.19314 -0.256467,-0.56542 -0.02293,-0.38574 2.43e-4,-0.67744 0.06953,-0.87511 l 0.223294,0.007 c -0.0074,-0.124 0.02042,0.11629 0.08337,0.72087 0.01802,0.30308 -0.02271,0.5267 -0.122188,0.67087 z m -0.786204,9.60691 c -0.346181,0.31091 -0.62021,0.47236 -0.822088,0.48436 -0.08075,0.005 -0.123584,-0.0343 -0.128499,-0.11679 -0.0025,-0.0413 0.157574,-0.1891 0.480123,-0.44331 0.07666,-0.0737 0.184911,-0.18379 0.324764,-0.33036 0.16396,0.0317 0.276543,0.10799 0.337749,0.22877 0.01345,-6.7e-4 -0.05056,0.0584 -0.192049,0.17733 z m 0.568078,-1.00847 0.0025,0.0413 c -0.06729,0.004 -0.105444,-0.0698 -0.114454,-0.22131 -0.02047,-0.34441 0.02757,-0.67215 0.144135,-0.98324 0.02364,-0.0568 0.08052,-0.1224 0.170633,-0.19679 0.02937,0.0397 0.0663,0.0928 0.110769,0.15932 0.04775,0.12159 0.02639,0.33024 -0.06408,0.62595 -0.07701,0.29491 -0.160162,0.48649 -0.249458,0.57474 z m 0.139583,-2.08208 c 0.0017,0.0275 -0.01179,0.0282 -0.04037,0.002 -0.02773,-0.0122 -0.04997,-0.0454 -0.0667,-0.0997 0.0069,-0.11101 0.0046,-0.26295 -0.0068,-0.45582 0.0012,-0.20745 0.02397,-0.50605 0.0683,-0.8958 0.09585,0.0219 0.192924,0.0645 0.291229,0.12786 -0.0085,0.0835 -0.01463,0.20825 -0.01826,0.37436 -0.0036,0.16612 -0.01314,0.34641 -0.02862,0.54088 -0.0028,0.17991 -0.06904,0.31519 -0.198723,0.40584 z m 0.146981,-4.34296 c -0.17578,-0.003 -0.270632,-0.12212 -0.284556,-0.35635 0.0098,0.16531 0.01223,-0.0215 0.0072,-0.56035 -0.0065,-0.11022 -0.0025,-0.26945 0.01211,-0.47769 0.05465,0.0106 0.123584,0.0342 0.206793,0.0707 0.05875,0.0795 0.09672,0.26384 0.113919,0.55315 0.0087,0.37277 0.01463,0.5867 0.0179,0.64181 -0.02773,-0.0122 -0.05219,0.0307 -0.07338,0.12878 z"
       sodipodi:nodetypes="cccccccccccccscccccccccccscccccccccccccsccccccssscccscccccscccccccccccccccsccsccsccccssscccccscccccccccccccccsccccscccscccccccccscccccccsccccscscccsssccccccccccsccccccccccccccccccsccccccccccccccscccscccssscccccccsccccccccssccccccccscccccccccccccccccccccccccccccccccccccccccccccccccscccccccsccccccsccccscccccccccccccccccccc"
       inkscape:export-xdpi="304.92999"
       inkscape:export-ydpi="304.92999" />
    <path
       id="path861"
       style="font-style:normal;font-variant:normal;font-weight:normal;font-stretch:normal;font-size:20.461px;line-height:1.25;font-family:'Singer Mears';-inkscape-font-specification:'Singer Mears';font-variation-settings:normal;text-align:center;text-anchor:middle;vector-effect:none;fill:#ff9031;fill-opacity:1;stroke:#523b00;stroke-width:1.27881;stroke-linecap:butt;stroke-linejoin:miter;stroke-miterlimit:4;stroke-dasharray:none;stroke-dashoffset:0;stroke-opacity:1;paint-order:stroke fill markers;stop-color:#000000"
       d="m 59.769365,113.2499 c 0.06529,-0.49271 0.107154,-1.08501 0.125581,-1.77691 0.0245,-0.23334 0.04042,-0.57859 0.04776,-1.03575 -0.08251,-1.02167 -0.579811,-1.83711 -1.491904,-2.44632 -0.265726,-0.18055 -0.503696,-0.30268 -0.713909,-0.36638 -0.839415,-0.26854 -1.421968,-0.33665 -1.74766,-0.20433 -0.05507,0.008 -0.136966,0.0133 -0.245678,0.0158 -0.606269,-0.0359 -1.189389,0.15956 -1.74936,0.58648 -0.134086,-0.0141 -0.340696,-0.11209 -0.619831,-0.29406 -0.341855,-0.23017 -0.545583,-0.35564 -0.611185,-0.3764 -0.349061,-0.16155 -1.035279,-0.27524 -2.058656,-0.34107 -0.01485,0.0124 -0.0855,0.0397 -0.211939,0.0818 -0.308397,-0.0324 -0.584496,0.0149 -0.828295,0.14199 -0.436915,-0.0715 -0.72761,-0.10132 -1.166548,-0.1225 -0.266731,-0.0419 -0.610091,-0.064 -1.030081,-0.0665 -0.67187,-0.0567 -1.394994,-0.0771 -2.169373,-0.0613 -0.07569,0.0753 -0.116701,0.27222 -0.123032,0.59072 -0.0097,0.22102 -0.01259,0.44274 -0.0088,0.66516 -0.01441,0.13725 -0.03819,0.36372 -0.07134,0.67941 -0.03315,0.31569 -0.05094,0.54972 -0.05339,0.7021 l -0.539076,7.45767 c -0.01729,0.1647 -0.01282,0.38026 0.01343,0.64667 -0.0029,0.0275 0.114208,0.0744 0.351223,0.14096 0.199688,0.0349 0.461876,0.0555 0.786564,0.0618 0.445365,0.019 0.708274,0.0327 0.788726,0.0412 0.283022,0.0159 0.694146,0.0382 1.233372,0.0671 0.146053,0.0292 0.367295,0.0524 0.663725,0.0697 0.110151,-0.0162 0.196368,-0.0626 0.25865,-0.13936 0.06084,-0.063 0.111501,-0.48092 0.151982,-1.25377 0.03171,-0.30196 0.07999,-0.76176 0.144844,-1.37939 0.05166,-1.10784 0.197394,-2.34346 0.205113,-3.30889 0.01109,-0.23474 0.02385,-0.42074 0.03826,-0.55799 0.03359,-0.19075 0.09111,-0.35123 0.172561,-0.48144 0.127447,-0.1809 0.316391,-0.23739 0.566831,-0.16946 0.199687,0.0349 0.318421,0.1306 0.356201,0.28719 0.05263,0.14429 0.05007,0.68521 -0.0077,1.62276 -0.08127,1.03223 -0.190501,2.58884 -0.327679,4.66983 -0.01441,0.13725 -0.02955,0.28136 -0.0454,0.43234 0.0095,0.16752 0.05235,0.2761 0.128474,0.32573 0.126881,0.0827 0.379482,0.13004 0.757805,0.14201 0.487033,0.01 0.76335,0.0247 0.828952,0.0454 0.135527,3.5e-4 0.331393,0.007 0.587596,0.0201 0.309839,0.0187 0.625662,0.0449 0.947468,0.0787 0.482709,0.0507 0.761189,0.0452 0.835438,-0.0164 0.05939,-0.0493 0.197817,-1.56117 0.41527,-4.53572 0.0043,-0.0412 0.01254,-0.24849 0.02463,-0.62187 0.0078,-0.33223 0.0232,-0.60815 0.04626,-0.82776 0.08648,-0.82352 0.280089,-1.24724 0.580843,-1.27117 0.314169,-0.0226 0.501387,0.0665 0.561654,0.26714 0.07512,0.18828 0.101374,0.45469 0.07875,0.79923 -0.01686,0.28964 -0.04042,0.57858 -0.07069,0.86682 -0.0121,0.3734 -0.09776,1.64106 -0.256991,3.80299 -0.05376,0.38291 -0.07789,0.93545 -0.07238,1.65762 0.725505,0.0623 1.45101,0.12464 2.176515,0.18692 1.211097,0.0855 1.848507,0.0832 1.912231,-0.007 0.01485,-0.0123 0.03812,-0.16947 0.06983,-0.47142 0.01743,-0.55324 0.07781,-1.38644 0.181136,-2.4996 0.03228,-0.56557 0.09338,-1.40563 0.183299,-2.5202 z m -11.557305,-0.31853 0.0043,-0.0412 c 0.128314,0.0691 0.191252,0.17974 0.188813,0.33207 0.01009,-0.0961 -0.01247,0.0542 -0.06767,0.45081 -0.0015,0.0137 0.0047,0.0838 0.01861,0.21012 -0.01009,0.0961 -0.01729,0.1647 -0.02162,0.20587 -0.03403,0.0658 -0.07785,0.0959 -0.131485,0.0903 -0.0953,0.004 -0.144832,-0.10527 -0.14859,-0.32782 0.0025,-0.15239 0.01162,-0.30408 0.02745,-0.45505 -0.01672,-0.0989 -0.03201,-0.21152 -0.04586,-0.33787 0.03114,-0.0383 0.08982,-0.0807 0.176037,-0.12722 z m -0.08594,3.52955 c -0.214537,-0.0225 -0.293701,-0.30144 -0.237493,-0.83673 0.03171,-0.30196 0.08685,-0.50432 0.16542,-0.60708 l 0.176692,0.0602 c 0.02681,0.003 0.03734,0.0315 0.03157,0.0866 -0.0539,0.77144 -0.0993,1.20379 -0.136197,1.29705 z m -2.305101,-8.8387 c 0.346179,0.189 0.395579,0.68681 0.148201,1.49344 -0.122118,10e-4 -0.195141,-0.0133 -0.219069,-0.0439 -0.05984,-0.0757 -0.07629,-0.30635 -0.04934,-0.69207 0.02407,-0.35827 0.06414,-0.61078 0.120208,-0.75754 z m -0.291392,3.54961 c -0.0071,-0.31991 0.05317,-0.76458 0.180739,-1.334 0.164223,0.11438 0.24389,0.32396 0.238999,0.62873 -0.02738,0.26078 -0.05476,0.52156 -0.08215,0.78235 l -0.06034,-0.006 c 0.01053,0.0289 -0.07209,0.041 -0.247841,0.0364 l 0.0043,-0.0412 c -0.02682,-0.003 -0.03807,-0.0247 -0.03374,-0.066 z m 0.01409,0.83408 c 0.05219,0.0193 0.114913,0.0675 0.188158,0.14465 0.03302,0.0729 0.03635,0.17033 0.01,0.29246 -0.03214,0.17702 -0.04965,0.27926 -0.05254,0.30671 0.0124,0.14007 0.01616,0.36249 0.01127,0.66726 l -0.04022,-0.004 c -0.0029,0.0275 -0.08476,0.0327 -0.245677,0.0158 l 0.0043,-0.0412 c -0.04023,-0.004 -0.05746,-0.0336 -0.05169,-0.0887 0.05101,-0.74399 0.109819,-1.17494 0.176416,-1.29283 z m -0.110642,2.21561 c 0.05219,0.0193 0.114913,0.0675 0.188158,0.14465 0.03158,0.0866 0.03008,0.29457 -0.0045,0.62398 -0.03315,0.31568 -0.06889,0.52702 -0.107236,0.63401 -0.05507,0.008 -0.14367,0.0126 -0.265791,0.0137 l 0.0043,-0.0412 c -0.02682,-0.003 -0.03735,-0.0315 -0.03158,-0.0866 0.05101,-0.74399 0.123228,-1.17352 0.216644,-1.2886 z m 0.508341,2.90505 c -0.06473,0.22911 -0.273062,0.27661 -0.625005,0.14252 -0.143171,-0.0567 -0.209931,-0.1955 -0.20028,-0.41651 0.0068,-0.19357 0.0516,-0.36233 0.134495,-0.50627 0.104387,0.0387 0.164944,0.10754 0.181673,0.20641 0.03158,0.0866 0.04975,0.17175 0.0545,0.25551 0.0047,0.0838 0.147183,0.14729 0.42735,0.19058 l -0.0043,0.0412 c 0.01197,0.0151 0.02249,0.044 0.03157,0.0866 z m 0.6625,-9.21399 c 0.02061,-0.0672 0.04339,-0.15503 0.06833,-0.26342 0.04023,0.004 0.110873,-0.0233 0.211938,-0.0818 0.283022,0.0159 0.674972,0.0917 1.175851,0.22754 -0.01729,0.16471 -0.119801,0.23721 -0.307523,0.2175 -0.159462,-0.0306 -0.31294,-0.0537 -0.460434,-0.0692 -0.147495,-0.0155 -0.376882,-0.0257 -0.688162,-0.0306 z m 1.543436,9.50807 c -0.05363,-0.005 -0.11015,0.0165 -0.16955,0.0654 -0.861031,-0.0627 -1.284341,-0.16262 -1.26993,-0.29986 0.0043,-0.0412 0.03619,-0.0864 0.09558,-0.13567 l 0.0043,-0.0412 c 0.76429,0.0803 1.197187,0.15347 1.298692,0.21963 0.04023,0.004 0.05385,0.0679 0.04088,0.19163 z m 0.340842,-5.37615 -0.04022,-0.004 -0.0043,0.0412 -0.221241,-0.0232 -0.0344,-0.25339 c 0.02162,-0.20588 0.04252,-0.4049 0.06269,-0.59706 0.03935,-0.24565 0.11698,-0.40401 0.2329,-0.4751 l 0.0043,-0.0412 c 0.03735,0.0317 0.07851,0.0915 0.123496,0.17948 0.04499,0.088 0.03966,0.26782 -0.01599,0.53952 -0.06573,0.36777 -0.101472,0.57911 -0.107236,0.634 z m 0.221553,-3.07819 c -0.214538,-0.0225 -0.305953,-0.18478 -0.274246,-0.48673 0.01873,-0.17843 0.0547,-0.3273 0.107899,-0.44661 0.09386,0.01 0.179072,0.10208 0.255637,0.27663 l 0.120678,0.0127 c 0.0057,-0.0549 0.09555,-0.1357 0.269459,-0.24231 0.114475,-0.0574 0.22967,-0.12162 0.345586,-0.19267 0.129763,0.0553 0.190321,0.12407 0.181674,0.2064 -0.0086,0.0824 -0.107333,0.18301 -0.296058,0.30196 -0.117358,0.0848 -0.240699,0.16206 -0.370023,0.23174 -0.07425,0.0616 -0.187785,0.17457 -0.340606,0.33891 z m 1.013905,1.18885 c -0.01341,-10e-4 -0.184618,0.0154 -0.513633,0.0502 l -0.09408,-0.0723 c -0.01197,-0.0151 -0.01651,-0.0364 -0.01362,-0.0639 0.0057,-0.0549 0.165479,-0.15605 0.479236,-0.30354 0.214537,0.0225 0.516449,0.11668 0.905737,0.28243 4.34e-4,0.12495 -0.106616,0.17616 -0.321151,0.15363 l -0.442484,-0.0465 z m 1.082545,-2.17599 c -0.09386,-0.01 -0.20495,-0.0493 -0.333271,-0.11825 0.01153,-0.10981 0.140851,-0.17949 0.387973,-0.20904 l 0.531582,-0.0274 c 0.333774,0.0489 0.494896,0.1283 0.483365,0.2381 -0.0086,0.0824 -0.07475,0.13092 -0.198311,0.1457 -0.226505,-0.0377 -0.516951,-0.0473 -0.87134,-0.029 z m 0.04358,2.87706 c 0.01917,-0.0535 0.05774,-0.098 0.115698,-0.13356 l 0.0043,-0.0412 c 0.02537,0.0165 0.07757,0.0359 0.156579,0.0581 0.01817,0.0852 0.04326,0.23351 0.07528,0.44503 0.02957,0.3639 0.0151,0.69542 -0.04343,0.99455 -0.107269,-0.0113 -0.184117,-0.054 -0.230546,-0.12827 -0.02393,-0.0303 -0.0447,-0.21979 -0.06231,-0.56856 -0.01616,-0.36248 -0.02136,-0.57118 -0.01559,-0.62609 z m 0.08983,2.04933 0.0043,-0.0412 c 0.05075,0.0331 0.09551,0.0586 0.134305,0.0765 0.03879,0.0179 0.05674,0.0406 0.05385,0.0681 l -0.136197,1.29706 -0.04022,-0.004 -0.0043,0.0412 c -0.215978,-0.009 -0.296583,-0.27398 -0.241816,-0.79555 0.03747,-0.35686 0.114167,-0.57083 0.230081,-0.64192 z m -0.206885,2.16385 c 0.05219,0.0193 0.108208,0.0668 0.168045,0.14254 0.06128,0.0619 0.08349,0.23773 0.06663,0.52738 -0.01686,0.28965 -0.04972,0.47353 -0.09859,0.55165 -0.03547,0.0795 -0.09703,0.1494 -0.184684,0.20957 -0.03446,-0.0591 -0.06532,-0.15257 -0.09257,-0.28031 -0.03621,-0.55887 0.01085,-0.94248 0.141174,-1.15083 z m 1.050076,2.58727 -0.04022,-0.004 c -0.0043,0.0412 -0.114484,0.0574 -0.330452,0.0485 -0.215979,-0.009 -0.331394,-0.007 -0.346243,0.005 -0.119236,-0.0264 -0.292827,-0.0516 -0.520773,-0.0755 l 0.0454,-0.43236 c 0.117795,0.0401 0.309338,0.088 0.574627,0.1436 0.01341,0.001 0.214535,0.0224 0.603386,0.0633 l -0.0043,0.0412 c 0.02681,0.003 0.03301,0.0727 0.0186,0.21011 z m 0.80263,-9.38661 c -0.03445,-0.0592 -0.03035,-0.16284 0.01232,-0.31093 0.721619,0.22841 1.061531,0.54164 1.019735,0.93968 -0.0058,0.0549 -0.01755,0.10227 -0.03524,0.14201 -0.04023,-0.004 -0.20445,-0.11838 -0.49267,-0.34314 -0.286779,-0.23827 -0.454823,-0.38081 -0.504134,-0.42762 z m 0.810725,9.51439 c -0.09467,0.0683 -0.186522,0.0471 -0.31034,0.051 -0.256204,-0.013 -0.417107,-0.0299 -0.48271,-0.0507 -0.11064,-0.0998 -0.04907,-0.20203 -0.03224,-0.27421 0.02037,-0.0933 0.348897,-0.0793 0.499997,-0.114 0.02825,-0.0109 0.09414,-0.12196 0.197654,-0.33309 0.287783,0.0996 0.213685,0.44037 0.127627,0.72111 z m 0.0041,-1.39419 c -0.03446,-0.0591 -0.07346,-0.13955 -0.117009,-0.24126 -0.09705,-0.49587 -0.04639,-0.91379 0.151983,-1.25376 l 0.201128,0.0211 -0.0043,0.0412 c 0.02681,0.003 0.03733,0.0316 0.03156,0.0867 -0.04625,0.82775 -0.134033,1.27646 -0.263359,1.34614 z m 0.251428,-2.20081 -0.181015,-0.019 0.0043,-0.0412 c -0.02682,-0.003 -0.03735,-0.0315 -0.03158,-0.0866 0.02275,-0.73308 0.06815,-1.16543 0.136197,-1.29705 0.05219,0.0193 0.115633,0.0607 0.190319,0.12406 0.05551,0.11684 0.06598,0.33997 0.03139,0.66939 -0.04511,0.30055 -0.09499,0.51734 -0.149627,0.65037 z m 0.389594,-2.93566 c -0.04411,0.16189 -0.12369,0.40332 -0.238731,0.72428 -0.09386,-0.01 -0.148433,-0.0711 -0.16372,-0.18372 -0.01528,-0.11262 -0.01788,-0.21697 -0.0078,-0.31304 0.0245,-0.23333 0.172343,-0.54392 0.443528,-0.93175 0.06416,0.0345 0.146992,0.0848 0.248495,0.151 -0.0086,0.0824 -0.04555,0.17561 -0.110713,0.27978 -0.09631,0.14253 -0.153324,0.23368 -0.171056,0.27345 z m 0.122955,-2.52653 -0.04022,-0.004 c 0.0015,-0.0137 0.01033,-0.0336 0.02659,-0.0596 0.109714,-0.14113 0.284309,-0.25462 0.523785,-0.34049 0.380769,-0.14042 0.577857,-0.20992 0.591265,-0.20851 l 0.223404,0.003 -0.0043,0.0412 c -0.0072,0.0686 -0.01657,0.15784 -0.0281,0.26764 -0.09386,-0.01 -0.283523,0.0535 -0.568989,0.19003 -0.285468,0.13656 -0.475132,0.19991 -0.568992,0.19005 -0.06704,-0.007 -0.118516,-0.0333 -0.154419,-0.0787 z m 1.810236,2.12589 c 0.0029,-0.0275 -0.03447,-0.0592 -0.11202,-0.0951 -0.06416,-0.0345 -0.17453,-0.0807 -0.331111,-0.13884 -0.143171,-0.0567 -0.281078,-0.0989 -0.413723,-0.1267 -0.117795,-0.0401 -0.161341,-0.14184 -0.130638,-0.30512 0.309839,0.0187 0.504263,0.0391 0.583273,0.0613 0.366795,0.12177 0.540824,0.27187 0.522087,0.4503 -0.0057,0.0549 -0.04502,0.10632 -0.117861,0.15415 z m 0.358676,-2.83483 c 0.619677,0.0373 1.024315,0.12145 1.213915,0.25235 0.02393,0.0303 0.04044,0.0667 0.04953,0.10929 -0.0072,0.0686 -0.02566,0.11525 -0.05535,0.13989 -0.01485,0.0123 -0.04909,0.0157 -0.102726,0.01 -0.04023,-0.004 -0.178855,-0.0394 -0.415886,-0.10611 -0.159461,-0.0306 -0.332332,-0.0626 -0.518612,-0.0961 -0.17287,-0.032 -0.229824,-0.13512 -0.170862,-0.30936 z m -0.03058,3.38965 0.223403,0.003 -0.0043,0.0412 c 0.02681,0.003 0.03662,0.0384 0.02941,0.10718 0.0037,0.22241 0.0075,0.44483 0.01127,0.66726 -0.01974,0.31709 -0.08086,0.51188 -0.183372,0.58439 -0.02681,-0.003 -0.06704,-0.007 -0.120677,-0.0127 -0.04023,-0.004 -0.05674,-0.0404 -0.04953,-0.10929 0.0086,-0.0824 0.01636,-0.2203 0.02313,-0.41387 0.02651,-0.51065 0.05008,-0.79959 0.07069,-0.86682 z m -0.05961,2.11689 c 0.05075,0.0331 0.10532,0.0943 0.163721,0.18371 0.0718,0.0908 0.08371,0.30021 0.03571,0.62821 -0.03603,0.34314 -0.09189,0.55236 -0.167582,0.62767 l -0.0043,0.0412 c -0.04023,-0.004 -0.09314,-0.0165 -0.158741,-0.0375 -0.0047,-0.0837 -0.0157,-0.23755 -0.03289,-0.46139 -0.0023,-0.23615 0.003,-0.41599 0.01598,-0.53952 0.02017,-0.19215 0.06955,-0.3396 0.148125,-0.44237 z m -0.213098,3.57864 c -0.0953,0.004 -0.128039,-0.20065 -0.09821,-0.61395 0.02407,-0.35827 0.06414,-0.61078 0.120207,-0.75754 0.0656,0.0207 0.141728,0.0704 0.228383,0.14888 0.05551,0.11684 0.05855,0.34612 0.0091,0.68785 0.0088,0.24861 -0.183175,0.44204 -0.25948,0.53476 z m 1.133925,1.01413 c -0.226505,-0.0377 -0.556456,-0.0584 -0.989855,-0.0623 0.0029,-0.0275 -0.01148,-0.0845 -0.04304,-0.17105 -0.02105,-0.0577 -0.0064,-0.13252 0.04389,-0.22435 0.710656,0.0746 1.098785,0.12231 1.164386,0.14308 0.0656,0.0207 0.09696,0.0448 0.09408,0.0723 -0.0043,0.0412 -0.09415,0.12197 -0.26946,0.24231 z m 1.657559,-3.19801 c 0.05219,0.0194 0.114906,0.0676 0.188158,0.14465 0.05551,0.11685 0.06598,0.33997 0.03139,0.66938 -0.03603,0.34314 -0.0986,0.55166 -0.187695,0.62557 -0.01485,0.0123 -0.04166,0.01 -0.08045,-0.008 -0.08665,-0.0785 -0.116507,-0.31059 -0.08956,-0.69631 0.02263,-0.34454 0.06868,-0.58949 0.138165,-0.73484 z m 0.119946,-2.11055 c 0.05363,0.005 0.133365,0.0206 0.239194,0.0459 0.0023,0.23615 -0.0013,0.46473 -0.011,0.68574 -0.0035,0.29105 -0.03993,0.50924 -0.109398,0.65459 -0.06704,-0.007 -0.140069,-0.0217 -0.21908,-0.0438 -0.0023,-0.23615 0.0013,-0.46473 0.011,-0.68574 0.002,-0.27732 0.03176,-0.49622 0.08929,-0.65671 z m 0.258842,-0.72216 -0.04022,-0.004 -0.0043,0.0412 c -0.18772,-0.0197 -0.250594,-0.32468 -0.188621,-0.91485 0.03603,-0.34314 0.09262,-0.55923 0.169744,-0.64826 0.308835,0.15731 0.329979,0.66603 0.06343,1.52616 z m -0.947156,-3.1801 c -0.01817,-0.0852 0.01203,-0.17914 0.0906,-0.28189 0.382081,0.23439 0.670018,0.59072 0.863813,1.069 -0.04023,-0.004 -0.07137,0.0344 -0.09342,0.1151 -0.09386,-0.01 -0.17215,-0.0389 -0.23487,-0.0871 -0.08233,-0.11966 -0.199121,-0.29844 -0.350373,-0.53635 -0.08954,-0.051 -0.181454,-0.14391 -0.275751,-0.27874 z m 0.470311,9.27049 -0.0065,0.0618 c -0.227946,-0.0239 -0.419488,-0.0718 -0.574626,-0.14359 0.0086,-0.0823 0.0635,-0.15292 0.164571,-0.21169 0.114475,-0.0573 0.181299,-0.11276 0.200472,-0.16629 l 0.123033,-0.59072 c 0.05219,0.0193 0.137908,0.0422 0.257145,0.0686 l 0.08045,0.008 c -0.02205,0.0809 -0.04173,0.20376 -0.05902,0.36847 -0.01729,0.16471 -0.07914,0.36636 -0.185534,0.60497 z"
       sodipodi:nodetypes="ccccccccccccccccccscccccccccccccccccccsccccsccsccccccccccccccccccccccsccsccccccccccccccccccsccccccccccccccscccccccccccsccccscccccssccscccccccccccccscccsscccccscccsscccccsssccccscccscccccccssccsccccsccscscccsscccccccccscsccccsscccccccccccccccccccccccscscsscccssccccccccssccsccccccsscccsccccccccccccccccccccccccccccccccscsccsssccssccccsccccccscccscccscccccssccccccccscc"
       inkscape:export-xdpi="304.92999"
       inkscape:export-ydpi="304.92999" />
    <g
       id="g879"
       transform="matrix(1.428642,0,0,1.428642,-15.503668,-52.805473)"
       inkscape:export-xdpi="304.92999"
       inkscape:export-ydpi="304.92999">
      <g
         id="g872">
        <path
           d="m 27.921404,131.0781 q -0.503804,0.041 -1.31419,0.0829 -1.056428,0.0619 -1.314681,0.0769 l -1.753556,0.11868 q -0.263127,0.0275 -0.757661,0.0376 -0.172331,-0.0162 -0.185027,-0.17205 -0.05324,-0.65364 -0.141643,-1.95634 -0.08303,-1.30917 -0.136269,-1.9628 -0.05666,-0.69561 -0.210489,-2.07749 -0.154323,-1.38788 -0.210981,-2.08349 -0.01074,-0.13192 0.165002,-0.14624 0.175747,-0.0143 0.522848,-0.0244 0.352959,-0.0106 0.522848,-0.0244 0.193319,-0.0157 0.572637,-0.0648 0.378828,-0.055 0.572146,-0.0707 0.08788,-0.007 0.0913,0.10726 l 4.68e-4,0.0784 q 0.02153,1.13308 0.117789,3.40096 l 0.123062,1.58359 q 0.06252,0.76757 0.09722,1.12089 0.01174,0.0714 0.02345,0.14297 0.01174,0.0714 0.0952,0.0828 0.0059,-4.8e-4 0.152313,-0.0124 0.527238,-0.043 1.571459,-0.18235 1.049592,-0.14584 1.576834,-0.18878 0.158171,-0.0129 0.169404,0.12504 0.08352,1.02542 -0.0023,1.78093 -0.01661,0.15829 -0.107882,0.19591 -0.02833,0.0144 -0.239209,0.0316 z"
           style="font-style:normal;font-variant:normal;font-weight:normal;font-stretch:normal;font-size:29.2705px;line-height:1.25;font-family:'Berlin Sans FB Demi';-inkscape-font-specification:'Berlin Sans FB Demi';text-align:center;text-anchor:middle;fill:#ffffff;fill-opacity:1;fill-rule:nonzero;stroke:#0090ff;stroke-width:0.761003;stroke-linecap:round;stroke-linejoin:miter;stroke-miterlimit:13;stroke-dasharray:none;stroke-opacity:1;paint-order:normal"
           id="path954" />
        <path
           d="m 34.79951,126.85336 c 0,0.4733 0.01177,1.18524 0.03529,2.13585 0.02352,0.95061 0.03529,1.66255 0.03529,2.13586 0,0.0802 -0.01764,0.13034 -0.0529,0.1504 -0.0078,0.004 -0.05879,0.012 -0.152818,0.0241 -0.254697,0.0321 -0.595598,0.0481 -1.022703,0.0481 -0.572088,0 -0.9365,-0.016 -1.093236,-0.0481 -0.322733,-0.16455 -0.126603,-1.03086 -0.117549,-1.24541 0.07053,-1.62445 0.105796,-2.69138 0.105796,-3.20077 0,-0.42918 -0.01372,-1.07294 -0.04114,-1.93129 -0.02743,-0.85835 -0.04114,-1.50211 -0.04114,-1.93129 0,-0.0882 0.04506,-0.13236 0.135185,-0.13236 0.121471,0 0.303676,0.006 0.546617,0.0181 0.246859,0.012 0.431024,0.0181 0.552495,0.0181 0.121471,0 0.299757,-0.006 0.53486,-0.0181 0.239023,-0.012 0.41927,-0.0181 0.540741,-0.0181 0.113632,0 0.170448,0.0441 0.170448,0.13236 0,0.42918 -0.02351,1.07294 -0.07053,1.93129 -0.0431,0.85835 -0.06465,1.50211 -0.06465,1.93129 z"
           style="font-style:normal;font-variant:normal;font-weight:normal;font-stretch:normal;font-size:29.2705px;line-height:1.25;font-family:'Berlin Sans FB Demi';-inkscape-font-specification:'Berlin Sans FB Demi';text-align:center;text-anchor:middle;fill:#ffffff;fill-opacity:1;fill-rule:nonzero;stroke:#0090ff;stroke-width:0.761003;stroke-linecap:round;stroke-linejoin:miter;stroke-miterlimit:13;stroke-dasharray:none;stroke-opacity:1;paint-order:normal"
           id="path956"
           sodipodi:nodetypes="cssccsccsssscscssccc" />
        <path
           d="m 47.390443,123.35231 q -0.04746,0.68424 -0.201441,2.05465 -0.147697,1.3648 -0.195575,2.05505 l -0.274365,3.95534 q -0.01124,0.16206 -0.181284,0.15026 -0.140722,-0.01 -0.428867,-0.0177 -0.282281,-0.008 -0.423006,-0.0173 -0.152451,-0.0105 -0.455689,-0.0558 -0.30324,-0.0452 -0.455693,-0.0558 -0.105541,-0.008 -0.238389,-0.21557 -0.381792,-0.61147 -1.720757,-2.71265 -0.365861,-0.58626 -1.117261,-1.72998 -0.02097,-0.0377 -0.08296,-0.0781 -0.04983,0.0388 -0.05607,0.1288 -0.04829,0.69624 -0.109728,2.09115 -0.05555,1.39533 -0.103842,2.09156 -0.01457,0.21008 -0.172886,0.1991 l -2.028777,-0.14073 q -0.170039,-0.0117 -0.157133,-0.19786 0.04496,-0.64822 0.194361,-1.9526 0.155263,-1.30399 0.200643,-1.95821 0.04788,-0.69023 0.08458,-2.06877 0.04257,-1.37813 0.09003,-2.06237 0.0092,-0.13204 0.237837,-0.11618 0.340085,0.0236 0.841814,0.0102 0.11809,-0.005 0.468632,-0.0459 0.296923,-0.0337 0.466962,-0.0219 0.07037,0.005 0.202798,0.21911 l 1.97434,3.21876 q 0.264448,0.43448 0.801292,1.27384 0.133683,0.19623 0.239227,0.20354 0.07622,0.005 0.108696,-0.46286 0.04371,-0.63022 0.06121,-1.90154 0.02335,-1.2709 0.06748,-1.90713 0.0154,-0.22206 0.138539,-0.21352 0.351809,0.0244 1.063377,0.0436 0.711573,0.0191 1.063383,0.0436 0.111405,0.008 0.0985,0.1938 z"
           style="font-style:normal;font-variant:normal;font-weight:normal;font-stretch:normal;font-size:29.2705px;line-height:1.25;font-family:'Berlin Sans FB Demi';-inkscape-font-specification:'Berlin Sans FB Demi';text-align:center;text-anchor:middle;fill:#ffffff;fill-opacity:1;fill-rule:nonzero;stroke:#0090ff;stroke-width:0.761003;stroke-linecap:round;stroke-linejoin:miter;stroke-miterlimit:13;stroke-dasharray:none;stroke-opacity:1;paint-order:normal"
           id="path958" />
        <path
           d="m 59.170544,130.73308 c 0.01104,0.17212 -0.05411,0.28883 -0.195455,0.35015 -0.114746,0.0475 -0.422378,0.0874 -0.922911,0.11943 -0.480982,0.0308 -0.834191,0.0334 -1.059651,0.008 -0.106863,-0.0132 -0.178537,-0.0288 -0.21501,-0.0465 -0.03281,-0.022 -0.0776,-0.0774 -0.134343,-0.16622 -0.319866,-0.51806 -0.637775,-1.03624 -0.95373,-1.55455 -0.520794,-0.83474 -0.828988,-1.29326 -0.924575,-1.37555 -0.412306,0.1832 -0.616275,0.30881 -0.611909,0.37687 0.01925,0.30021 0.06014,0.75376 0.122645,1.36067 0.0622,0.60292 0.103086,1.05647 0.122601,1.36069 0.008,0.12409 -0.04034,0.19752 -0.14489,0.2203 -0.201289,0.045 -0.567822,0.0847 -1.099638,0.11879 -0.508351,0.0326 -0.845664,0.0382 -1.011956,0.0167 -0.114937,-0.0167 -0.175619,-0.0751 -0.182038,-0.17522 -0.02774,-0.43229 -0.05006,-1.08601 -0.0669,-1.96111 -0.01297,-0.87537 -0.03343,-1.53119 -0.06143,-1.9675 -0.02979,-0.46432 -0.09399,-1.15954 -0.192693,-2.08568 -0.09894,-0.93013 -0.163288,-1.62736 -0.193078,-2.09168 -0.0057,-0.0881 0.03258,-0.13473 0.114704,-0.13999 0.121227,-0.008 0.303442,-0.0134 0.546652,-0.0169 0.247116,-0.004 0.431299,-0.01 0.552515,-0.0173 0.125136,-0.008 0.310491,-0.026 0.556067,-0.0538 0.245575,-0.0278 0.428978,-0.0457 0.550204,-0.0534 0.06648,-0.005 0.102023,0.0296 0.106648,0.10167 0.019,0.29622 0.03212,0.74552 0.03935,1.34795 0.01089,0.59816 0.02583,1.04534 0.04483,1.34155 0.02208,0.34423 0.125015,0.51047 0.308806,0.49867 0.465332,-0.0299 0.818697,-0.18312 1.060088,-0.45988 0.179284,-0.20442 0.350376,-0.56708 0.513286,-1.08797 0.100225,-0.3963 0.2688,-0.98187 0.50573,-1.75669 0.03659,-0.10283 0.121366,-0.15852 0.254319,-0.16704 0.101673,-0.007 0.254561,-0.0103 0.45867,-0.0113 0.208017,-0.002 0.362863,-0.005 0.464534,-0.0117 0.105581,-0.007 0.261757,-0.0206 0.468478,-0.0421 0.210645,-0.0216 0.366806,-0.0356 0.468477,-0.0421 0.09385,-0.006 0.143724,0.037 0.149631,0.12907 0.0085,0.13208 -0.05298,0.45958 -0.184342,0.98246 -0.387824,1.54415 -0.884455,2.52455 -1.489887,2.94119 -0.124167,0.0843 -0.184702,0.15052 -0.181622,0.19855 0.203661,0.35204 0.398014,0.57332 1.194808,1.732 0.800708,1.15843 1.208377,1.85173 1.223012,2.07988 z"
           style="font-style:normal;font-variant:normal;font-weight:normal;font-stretch:normal;font-size:29.2705px;line-height:1.25;font-family:'Berlin Sans FB Demi';-inkscape-font-specification:'Berlin Sans FB Demi';text-align:center;text-anchor:middle;fill:#ffffff;fill-opacity:1;fill-rule:nonzero;stroke:#0090ff;stroke-width:0.761003;stroke-linecap:round;stroke-linejoin:miter;stroke-miterlimit:13;stroke-dasharray:none;stroke-opacity:1;paint-order:normal"
           id="path960"
           sodipodi:nodetypes="scscccccscscscscscsscsssscsscccscscssccccss" />
      </g>
    </g>
  </g>
</svg>
