<?xml version="1.0" encoding="UTF-8" standalone="no"?>
<svg
   xmlns:dc="http://purl.org/dc/elements/1.1/"
   xmlns:cc="http://creativecommons.org/ns#"
   xmlns:rdf="http://www.w3.org/1999/02/22-rdf-syntax-ns#"
   xmlns:svg="http://www.w3.org/2000/svg"
   xmlns="http://www.w3.org/2000/svg"
   xmlns:sodipodi="http://sodipodi.sourceforge.net/DTD/sodipodi-0.dtd"
   xmlns:inkscape="http://www.inkscape.org/namespaces/inkscape"
   sodipodi:docname="logo_picto.svg"
   inkscape:version="1.0 (4035a4fb49, 2020-05-01)"
   id="svg8"
   version="1.1"
   viewBox="0 0 27.351511 22.776413"
   height="22.776413mm"
   width="27.351511mm">
  <defs
     id="defs2" />
  <sodipodi:namedview
     fit-margin-bottom="0"
     fit-margin-right="0"
     fit-margin-left="0"
     fit-margin-top="0"
     inkscape:window-maximized="1"
     inkscape:window-y="-8"
     inkscape:window-x="1912"
     inkscape:window-height="1017"
     inkscape:window-width="2560"
     showgrid="false"
     inkscape:document-rotation="0"
     inkscape:current-layer="layer1"
     inkscape:document-units="mm"
     inkscape:cy="-56.748954"
     inkscape:cx="-69.970694"
     inkscape:zoom="0.9899495"
     inkscape:pageshadow="2"
     inkscape:pageopacity="0.0"
     borderopacity="1.0"
     bordercolor="#666666"
     pagecolor="#ffffff"
     id="base" />
  <metadata
     id="metadata5">
    <rdf:RDF>
      <cc:Work
         rdf:about="">
        <dc:format>image/svg+xml</dc:format>
        <dc:type
           rdf:resource="http://purl.org/dc/dcmitype/StillImage" />
        <dc:title></dc:title>
      </cc:Work>
    </rdf:RDF>
  </metadata>
  <g
     transform="translate(-61.201013,-100.27503)"
     id="layer1"
     inkscape:groupmode="layer"
     inkscape:label="Calque 1">
    <path
       id="path1019"
       style="color:#000000;font-style:normal;font-variant:normal;font-weight:normal;font-stretch:normal;font-size:medium;line-height:normal;font-family:sans-serif;font-variant-ligatures:normal;font-variant-position:normal;font-variant-caps:normal;font-variant-numeric:normal;font-variant-alternates:normal;font-variant-east-asian:normal;font-feature-settings:normal;font-variation-settings:normal;text-indent:0;text-align:start;text-decoration:none;text-decoration-line:none;text-decoration-style:solid;text-decoration-color:#000000;letter-spacing:normal;word-spacing:normal;text-transform:none;writing-mode:lr-tb;direction:ltr;text-orientation:mixed;dominant-baseline:auto;baseline-shift:baseline;text-anchor:start;white-space:normal;shape-padding:0;shape-margin:0;inline-size:0;clip-rule:nonzero;display:inline;overflow:visible;visibility:visible;opacity:1;isolation:auto;mix-blend-mode:normal;color-interpolation:sRGB;color-interpolation-filters:linearRGB;solid-color:#000000;solid-opacity:1;vector-effect:none;fill:#ff9031;fill-opacity:1;fill-rule:evenodd;stroke:#523b00;stroke-width:0.679;stroke-linecap:square;stroke-linejoin:miter;stroke-miterlimit:0;stroke-dasharray:none;stroke-dashoffset:0;stroke-opacity:1;paint-order:normal;color-rendering:auto;image-rendering:auto;shape-rendering:auto;text-rendering:auto;enable-background:accumulate;stop-color:#000000;stop-opacity:1"
       d="m 85.267578,100.73633 c -1.108553,0.30326 -2.14112,0.88149 -3.208984,1.3125 -0.981885,0.51801 -0.549601,2.18741 0.566406,2.14453 0.43497,0.0402 1.132866,-0.58535 0.713071,0.21066 -1.168518,3.62869 -2.418333,7.23334 -4.304868,10.57645 -1.325097,2.21998 -3.10796,4.78413 -5.866169,5.3429 -3.242315,0.43182 -6.98379,-0.81307 -8.618206,-3.80579 -1.469505,-2.64498 -0.674312,-6.50556 2.103115,-7.94511 1.886098,-1.05212 4.731322,-0.15842 5.252354,2.05058 0.15144,0.86405 0.02405,1.97124 -0.703125,2.53711 -0.461605,-0.12809 -1.539763,0.34216 -1.523438,-0.27852 -0.118913,-0.8906 0.346821,-2.08584 -0.511718,-2.71367 -0.791434,-0.58121 -1.945224,0.22316 -1.767578,1.16289 v 1.87617 c -0.9148,0.0926 -1.905056,-0.15076 -2.771485,0.19727 -0.975801,0.51473 -0.554701,2.17184 0.552735,2.14258 0.739274,-0.0153 1.479175,-0.026 2.21875,-0.0352 0.109259,0.89704 -0.2481,1.91707 0.240234,2.72851 0.593216,0.87743 2.10278,0.34006 2.039062,-0.70703 v -2.04492 c 1.165297,3.3e-4 2.545083,0.14145 3.367188,-0.88281 1.853005,-2.0995 1.505647,-5.65545 -0.69336,-7.38477 -2.217428,-1.91121 -5.742027,-1.8044 -7.943171,0.0763 -3.178634,2.56562 -3.756123,7.57148 -1.496934,10.91779 2.299748,3.54845 6.953026,5.06247 11.006382,4.30608 3.224803,-0.74885 5.425134,-3.5428 7.017014,-6.26452 2.099164,-3.67383 3.478704,-7.69928 4.7546,-11.71724 0.04312,-0.16899 0.929506,1.46856 1.769531,1.14844 0.873996,-0.2818 0.978233,-1.46241 0.362628,-2.05839 -0.646798,-0.87874 -1.143398,-1.88249 -1.862628,-2.70528 -0.331169,-0.30492 -0.100468,-0.42526 -0.691406,-0.1875 z"
       sodipodi:nodetypes="sccccccccccccccccccccccccccccccs"
       inkscape:export-xdpi="304.92999"
       inkscape:export-ydpi="304.92999" />
    <path
       id="path889"
       style="color:#000000;font-style:normal;font-variant:normal;font-weight:normal;font-stretch:normal;font-size:medium;line-height:normal;font-family:sans-serif;font-variant-ligatures:normal;font-variant-position:normal;font-variant-caps:normal;font-variant-numeric:normal;font-variant-alternates:normal;font-variant-east-asian:normal;font-feature-settings:normal;font-variation-settings:normal;text-indent:0;text-align:start;text-decoration:none;text-decoration-line:none;text-decoration-style:solid;text-decoration-color:#000000;letter-spacing:normal;word-spacing:normal;text-transform:none;writing-mode:lr-tb;direction:ltr;text-orientation:mixed;dominant-baseline:auto;baseline-shift:baseline;text-anchor:start;white-space:normal;shape-padding:0;shape-margin:0;inline-size:0;clip-rule:nonzero;display:inline;overflow:visible;visibility:visible;opacity:1;isolation:auto;mix-blend-mode:normal;color-interpolation:sRGB;color-interpolation-filters:linearRGB;solid-color:#000000;solid-opacity:1;vector-effect:none;fill:none;fill-opacity:1;fill-rule:evenodd;stroke:#523b00;stroke-width:0.279;stroke-linecap:round;stroke-linejoin:miter;stroke-miterlimit:0;stroke-dasharray:0.837, 0.837;stroke-dashoffset:0;stroke-opacity:1;paint-order:stroke fill markers;color-rendering:auto;image-rendering:auto;shape-rendering:auto;text-rendering:auto;enable-background:accumulate;stop-color:#000000;stop-opacity:1"
       sodipodi:type="inkscape:offset"
       inkscape:radius="0.25443175"
       inkscape:original="M 85.332031 101.79297 L 85.326172 101.79492 C 84.416241 102.19609 83.441425 102.55166 82.566406 103.00195 C 82.560206 103.35183 83.07268 102.89133 83.220703 102.89258 C 83.790481 102.55304 84.334254 102.36625 84.732422 103.03906 C 84.931571 103.52664 84.415291 104.20513 84.333984 104.76758 C 82.854839 109.25543 81.325681 113.85056 78.505859 117.70117 C 77.016114 119.73062 74.780434 121.55096 72.130859 121.46484 C 68.615026 121.55474 64.782758 119.83559 63.353516 116.45898 C 61.929977 113.31972 63.125394 109.04754 66.34375 107.54492 C 68.699595 106.3628 72.039475 107.46861 72.845703 110.07422 C 73.249751 111.4182 72.976147 113.14082 71.822266 114.03516 C 70.998285 114.42025 70.035658 114.15054 69.154297 114.24609 C 68.518025 113.89414 68.590569 113.24668 68.619141 112.61719 C 68.554571 112.1153 68.726635 111.51058 68.574219 111.04492 C 68.293616 111.02672 68.539199 111.59589 68.457031 111.75391 C 68.409431 112.4264 68.551849 113.17658 68.386719 113.80078 C 68.041257 114.44265 67.337242 114.23837 66.734375 114.27344 C 66.218491 114.32374 65.627774 114.2081 65.142578 114.3418 C 65.080348 114.67439 65.673311 114.39127 65.835938 114.47461 C 66.547241 114.50541 67.329451 114.36374 67.992188 114.51758 C 68.638874 114.86519 68.431646 115.56881 68.457031 116.17578 C 68.517131 116.63248 68.357327 117.19499 68.498047 117.61523 C 68.790441 117.63463 68.532207 117.06939 68.619141 116.91016 C 68.668661 116.24887 68.521673 115.50722 68.689453 114.89453 C 69.034915 114.25269 69.73893 114.45699 70.341797 114.42188 C 71.156263 114.50647 72.089406 114.37385 72.515625 113.57227 C 73.792698 111.68836 73.187433 108.87039 71.222656 107.70117 C 69.019291 106.19028 65.83486 106.89132 64.230469 108.94922 C 62.225813 111.36329 62.072567 114.94715 63.759766 117.58008 C 65.827767 120.8073 70.049003 122.15706 73.714844 121.48438 C 76.634559 120.7638 78.574272 118.17655 80.025391 115.71289 C 82.272275 111.78432 83.656842 107.44728 85.021484 103.1543 C 85.706261 102.91632 86.211338 103.07099 86.458984 103.7832 C 86.711139 104.01108 86.79812 104.56745 87.105469 104.6875 C 87.335067 104.47391 86.789851 104.16075 86.761719 103.93555 C 86.27053 103.24389 85.86156 102.42861 85.332031 101.79297 z "
       d="m 85.34375,101.53906 a 0.2544572,0.2544572 0 0 0 -0.0918,0.0117 l -0.0059,0.002 a 0.2544572,0.2544572 0 0 0 -0.02344,0.01 c -0.899333,0.3965 -1.878512,0.75236 -2.773437,1.21289 a 0.2544572,0.2544572 0 0 0 -0.136719,0.22266 c -0.0013,0.0743 0.0062,0.15543 0.06055,0.23828 0.05435,0.0829 0.162052,0.13864 0.242187,0.14844 0.160271,0.0196 0.244696,-0.0355 0.332032,-0.0781 0.08733,-0.0427 0.168515,-0.0912 0.230468,-0.125 0.06195,-0.0338 0.137159,-0.0343 0.04102,-0.0352 a 0.2544572,0.2544572 0 0 0 0.132812,-0.0352 c 0.271939,-0.16205 0.521591,-0.26808 0.695313,-0.27149 0.166668,-0.003 0.289251,0.0524 0.447266,0.30664 0.05042,0.13522 0.01311,0.35748 -0.09375,0.63868 -0.108828,0.28637 -0.268869,0.60295 -0.31836,0.94531 l 0.0098,-0.043 c -1.478989,4.48738 -3.002296,9.05514 -5.791016,12.86328 -1.460837,1.99007 -3.633529,3.74234 -6.162109,3.66016 a 0.2544572,0.2544572 0 0 0 -0.01367,0 c -3.428251,0.0877 -7.159422,-1.59675 -8.537109,-4.85156 a 0.2544572,0.2544572 0 0 0 -0.002,-0.006 c -1.365558,-3.0114 -0.207499,-7.1435 2.865234,-8.57813 a 0.2544572,0.2544572 0 0 0 0.0059,-0.004 c 2.212073,-1.10997 5.389527,-0.0567 6.144531,2.37696 0.374997,1.24734 0.107969,2.84907 -0.917968,3.66406 -0.680216,0.30065 -1.545811,0.10785 -2.44336,0.17969 -0.218597,-0.13523 -0.30917,-0.28961 -0.353515,-0.50781 -0.04755,-0.23397 -0.02822,-0.53493 -0.01367,-0.85547 a 0.2544572,0.2544572 0 0 0 -0.002,-0.0449 c -0.05397,-0.41949 0.135596,-1.03778 -0.05469,-1.61914 a 0.2544572,0.2544572 0 0 0 -0.226562,-0.17382 c -0.07662,-0.005 -0.169378,0.0124 -0.244141,0.0644 -0.07476,0.052 -0.117791,0.12668 -0.138672,0.18945 -0.04176,0.12554 -0.02874,0.22276 -0.01953,0.31446 0.0092,0.0917 0.02351,0.17674 0.0293,0.23828 0.0058,0.0615 -0.01856,0.10105 0.01367,0.0391 a 0.2544572,0.2544572 0 0 0 -0.02734,0.0996 c -0.0501,0.70787 0.06978,1.42729 -0.06055,1.96484 -0.12908,0.22105 -0.274913,0.28336 -0.513672,0.31055 -0.249631,0.0284 -0.574398,-0.0117 -0.910156,0.008 a 0.2544572,0.2544572 0 0 0 -0.0098,0 c -0.459727,0.0448 -1.062356,-0.0816 -1.634765,0.0762 a 0.2544572,0.2544572 0 0 0 -0.181641,0.19922 c -0.0139,0.0743 -0.01605,0.16003 0.02148,0.2461 0.03754,0.0861 0.116416,0.15345 0.185547,0.18359 0.138264,0.0603 0.239184,0.0404 0.333985,0.0293 0.0948,-0.0111 0.184086,-0.0272 0.248047,-0.0352 0.06396,-0.008 0.106288,0.0169 0.03906,-0.0176 a 0.2544572,0.2544572 0 0 0 0.103516,0.0273 c 0.73752,0.0319 1.488778,-0.0875 2.070312,0.0352 0.221255,0.12987 0.284631,0.27607 0.310547,0.51367 0.0272,0.2494 -0.01602,0.57174 -0.002,0.90821 a 0.2544572,0.2544572 0 0 0 0.002,0.0234 c 0.02448,0.18604 0.0035,0.42869 -0.01172,0.68555 -0.01524,0.25686 -0.02792,0.53075 0.0625,0.80078 a 0.2544572,0.2544572 0 0 0 0.22461,0.17383 c 0.07603,0.005 0.168214,-0.0105 0.24414,-0.0606 0.07593,-0.0501 0.122381,-0.12548 0.144532,-0.18945 0.0443,-0.12793 0.02942,-0.2248 0.01953,-0.31641 -0.0099,-0.0916 -0.02529,-0.17789 -0.03125,-0.23828 -0.006,-0.0604 0.01837,-0.0955 -0.01563,-0.0332 a 0.2544572,0.2544572 0 0 0 0.03125,-0.10156 c 0.05241,-0.69987 -0.07101,-1.41219 0.06055,-1.93555 0.129077,-0.22103 0.274908,-0.28336 0.513672,-0.31055 0.238387,-0.0271 0.549695,0.006 0.86914,-0.008 0.430753,0.0447 0.897867,0.0344 1.333985,-0.10351 0.434484,-0.13736 0.839153,-0.41646 1.085937,-0.87696 9.93e-4,-0.001 0.0029,-0.002 0.0039,-0.004 1.340811,-2.00723 0.706794,-4.94953 -1.373046,-6.19922 l -0.002,-0.002 c -2.325472,-1.59271 -5.641486,-0.8619 -7.330078,1.29688 -2.079651,2.50438 -2.237797,6.20256 -0.490234,8.92969 2.135472,3.33251 6.457424,4.70742 10.216797,4.01758 a 0.2544572,0.2544572 0 0 0 0.01367,-0.004 c 3.031814,-0.74825 5.006844,-3.4067 6.46875,-5.88867 a 0.2544572,0.2544572 0 0 0 0.002,-0.002 c 2.239854,-3.91628 3.620287,-8.22116 4.970703,-12.46875 0.247915,-0.0689 0.449926,-0.0807 0.591797,-0.0234 0.164364,0.0663 0.302079,0.20871 0.410156,0.51953 a 0.2544572,0.2544572 0 0 0 0.07031,0.10547 c 0.06045,0.0546 0.147907,0.22632 0.244141,0.41796 0.09623,0.19165 0.210296,0.42768 0.480469,0.53321 a 0.2544572,0.2544572 0 0 0 0.265625,-0.0508 c 0.116869,-0.10872 0.156108,-0.30845 0.117187,-0.43555 -0.03892,-0.1271 -0.108855,-0.20965 -0.171875,-0.28516 -0.06302,-0.0755 -0.12465,-0.14164 -0.166015,-0.19336 -0.04137,-0.0517 -0.04952,-0.0915 -0.04492,-0.0547 a 0.2544572,0.2544572 0 0 0 -0.04492,-0.11524 c -0.475142,-0.66906 -0.884633,-1.48986 -1.441406,-2.1582 a 0.2544572,0.2544572 0 0 0 -0.183594,-0.0918 z"
       inkscape:export-xdpi="304.92999"
       inkscape:export-ydpi="304.92999" />
  </g>
</svg>
