<?xml version="1.0" encoding="UTF-8" standalone="no"?>
<!-- Created with Inkscape (http://www.inkscape.org/) -->

<svg
   width="367.6806"
   height="410.36615"
   viewBox="0 0 97.282157 108.57605"
   version="1.1"
   id="svg5"
   inkscape:version="1.1.1 (eb90963e84, 2021-10-02)"
   sodipodi:docname="snail.svg"
   xmlns:inkscape="http://www.inkscape.org/namespaces/inkscape"
   xmlns:sodipodi="http://sodipodi.sourceforge.net/DTD/sodipodi-0.dtd"
   xmlns="http://www.w3.org/2000/svg"
   xmlns:svg="http://www.w3.org/2000/svg">
  <sodipodi:namedview
     id="namedview7"
     pagecolor="#ffffff"
     bordercolor="#666666"
     borderopacity="1.0"
     inkscape:pageshadow="2"
     inkscape:pageopacity="0.0"
     inkscape:pagecheckerboard="0"
     inkscape:document-units="mm"
     showgrid="false"
     showguides="true"
     inkscape:guide-bbox="true"
     inkscape:zoom="1.5812177"
     inkscape:cx="183.71917"
     inkscape:cy="205.22158"
     inkscape:window-width="1848"
     inkscape:window-height="1016"
     inkscape:window-x="72"
     inkscape:window-y="27"
     inkscape:window-maximized="1"
     inkscape:current-layer="layer1"
     units="px"
     fit-margin-top="50"
     fit-margin-left="50"
     fit-margin-right="50"
     fit-margin-bottom="50" />
  <defs
     id="defs2" />
  <g
     inkscape:label="Calque 1"
     inkscape:groupmode="layer"
     id="layer1"
     transform="translate(-54.793744,-87.071362)">
    <path
       style="fill:#19ff47;fill-opacity:1;stroke:#000000;stroke-width:0.264583px;stroke-linecap:butt;stroke-linejoin:miter;stroke-opacity:1"
       d="m 119.69286,139.42869 c -5.05068,10.64235 -17.55455,6.16508 -16.51779,-1.00967 -0.30492,4.43835 6.37896,7.59885 8.03027,1.05707 z"
       id="path8887"
       sodipodi:nodetypes="cccc" />
    <path
       style="fill:#767d47;fill-opacity:1;stroke:#000000;stroke-width:0.264583px;stroke-linecap:butt;stroke-linejoin:miter;stroke-opacity:1"
       d="m 111.20534,139.47609 c 0.1377,-1.4426 -0.63934,-3.49874 -3.03391,-4.06006 l 10.01124,-9.88338 c 3.78307,4.36428 2.9032,11.0935 1.51019,13.89604 z"
       id="path11297"
       sodipodi:nodetypes="ccccc" />
    <path
       style="fill:#d2ac99;fill-opacity:1;stroke:#000000;stroke-width:0.264583px;stroke-linecap:butt;stroke-linejoin:miter;stroke-opacity:1"
       d="m 98.816984,119.95498 c 6.360566,-2.2741 14.866686,-1.86627 19.365686,5.57767 l -10.01124,9.88338 c -0.92363,-0.26658 -1.48037,-0.27706 -2.76653,0.13386 z"
       id="path11299"
       sodipodi:nodetypes="ccccc" />
    <path
       style="fill:#d2bd4f;fill-opacity:1;stroke:#000000;stroke-width:0.264583px;stroke-linecap:butt;stroke-linejoin:miter;stroke-opacity:1"
       d="m 105.4049,135.54989 c -1.24811,0.79863 -1.80207,1.66037 -2.22983,2.86918 l -15.822865,-6.28356 c 1.770706,-4.78588 5.466091,-10.13968 11.464777,-12.18053 z"
       id="path11301"
       sodipodi:nodetypes="ccccc" />
    <path
       style="fill:#d2bddb;fill-opacity:1;stroke:#000000;stroke-width:0.264583px;stroke-linecap:butt;stroke-linejoin:miter;stroke-opacity:1"
       d="m 103.17507,138.41902 c -0.27528,1.90931 0.23823,2.99826 1.06727,4.11876 l -12.237874,12.84937 c -4.958379,-5.13172 -7.834321,-14.0497 -4.652261,-23.25164 z"
       id="path11303"
       sodipodi:nodetypes="ccccc" />
    <path
       style="fill:#2dbddb;fill-opacity:1;stroke:#000000;stroke-width:0.264583px;stroke-linecap:butt;stroke-linejoin:miter;stroke-opacity:1"
       d="m 104.24234,142.53778 c 1.26878,2.00548 3.84699,3.03285 6.22009,3.27141 l -0.81765,18.09359 c -5.09923,-0.0162 -13.478133,-3.18945 -17.640314,-8.51563 z"
       id="path11305"
       sodipodi:nodetypes="ccccc" />
    <path
       style="fill:#fabd47;fill-opacity:1;stroke:#000000;stroke-width:0.264583px;stroke-linecap:butt;stroke-linejoin:miter;stroke-opacity:1"
       d="m 110.46243,145.80919 c 2.39532,-0.0947 5.23239,-0.78884 7.46995,-3.50233 l 14.30058,10.71318 c -5.88868,7.88711 -14.86948,11.32538 -22.58818,10.88274 z"
       id="path11307"
       sodipodi:nodetypes="ccccc" />
    <path
       style="fill:#76bd47;fill-opacity:1;stroke:#000000;stroke-width:0.264583px;stroke-linecap:butt;stroke-linejoin:miter;stroke-opacity:1"
       d="m 117.93238,142.30686 c 1.6546,-2.23783 3.48273,-6.21104 2.83403,-10.83106 l 17.33611,-3.58876 c 1.59186,6.64938 0.21288,17.75354 -5.86956,25.133 z"
       id="path11309"
       sodipodi:nodetypes="ccccc" />
    <path
       style="fill:#fa2447;fill-opacity:1;stroke:#000000;stroke-width:0.264583px;stroke-linecap:butt;stroke-linejoin:miter;stroke-opacity:1"
       d="m 120.76641,131.4758 c -1.3169,-6.43429 -5.44195,-10.34441 -11.9965,-12.29831 l 2.8275,-18.06334 c 15.88522,3.03427 24.67563,16.15298 26.50511,26.77289 z"
       id="path11311"
       sodipodi:nodetypes="ccccc" />
    <path
       style="fill:#fa9db5;fill-opacity:1;stroke:#000000;stroke-width:0.264583px;stroke-linecap:butt;stroke-linejoin:miter;stroke-opacity:1"
       d="m 111.59741,101.11415 c -16.725354,-3.291522 -30.327211,5.86634 -36.65578,16.22896 l 15.684421,8.71233 c 6.672653,-7.87032 13.389929,-7.48569 18.143859,-6.87795 z"
       id="path11313"
       sodipodi:nodetypes="ccccc" />
    <path
       style="fill:#513199;fill-opacity:1;stroke:#000000;stroke-width:0.264583px;stroke-linecap:butt;stroke-linejoin:miter;stroke-opacity:1"
       d="m 74.94163,117.34311 15.684421,8.71233 c -6.681823,8.39356 -4.844582,18.74334 -2.628715,23.28754 l -15.398657,9.30238 c -4.70908,-8.65598 -7.90366,-26.14654 2.342951,-41.30225 z"
       id="path11315"
       sodipodi:nodetypes="ccccc" />
    <path
       style="fill:#c037b8;fill-opacity:1;stroke:#000000;stroke-width:0.264583px;stroke-linecap:butt;stroke-linejoin:miter;stroke-opacity:1"
       d="m 87.997336,149.34298 -15.398657,9.30238 c 7.513492,15.57541 22.599486,22.69486 34.845791,23.6301 V 163.71589 C 96.544797,162.01702 90.125526,154.63878 87.997336,149.34298 Z"
       id="path11317"
       sodipodi:nodetypes="ccccc" />
    <path
       style="font-variation-settings:normal;opacity:1;vector-effect:none;fill:#ff814d;fill-opacity:1;fill-rule:nonzero;stroke:#000000;stroke-width:0.264583px;stroke-linecap:butt;stroke-linejoin:miter;stroke-miterlimit:4;stroke-dasharray:none;stroke-dashoffset:0;stroke-opacity:1;-inkscape-stroke:none;stop-color:#000000;stop-opacity:1"
       id="path19324"
       sodipodi:type="arc"
       sodipodi:cx="107.26515"
       sodipodi:cy="139.15038"
       sodipodi:rx="4.0913129"
       sodipodi:ry="4.0913129"
       sodipodi:start="0.38206654"
       sodipodi:end="0.38191644"
       sodipodi:open="true"
       sodipodi:arc-type="arc"
       d="m 111.06147,140.67578 a 4.0913129,4.0913129 0 0 1 -5.32158,2.27097 4.0913129,4.0913129 0 0 1 -2.27117,-5.32149 4.0913129,4.0913129 0 0 1 5.3214,-2.27137 4.0913129,4.0913129 0 0 1 2.27157,5.32132" />
  </g>
</svg>
